<?xml version="1.0" encoding="iso-8859-1"?>
<!-- Generator: Adobe Illustrator 19.2.1, SVG Export Plug-In . SVG Version: 6.00 Build 0)  -->
<svg version="1.1" xmlns="http://www.w3.org/2000/svg" xmlns:xlink="http://www.w3.org/1999/xlink" x="0px" y="0px"
	 viewBox="0 0 1440 810" style="enable-background:new 0 0 1440 810;" xml:space="preserve">
<g id="Layer_8">
	<g>
		<path style="fill:#33040E;" d="M773,389.633c0-0.35-0.284-0.633-0.633-0.633h-28.733c-0.35,0-0.633,0.284-0.633,0.633v27.733
			c0,0.35,0.284,0.633,0.633,0.633h28.733c0.35,0,0.633-0.284,0.633-0.633V389.633z"/>
		<path style="fill:#33040E;" d="M648.536,389h-28.325c-0.362,0-0.212,0.073-0.212,0.435V397h29v-7.565
			C649,389.073,648.898,389,648.536,389z"/>
		<path style="fill:#33040E;" d="M709.076,389h-28.325c-0.362,0-0.752,0.073-0.752,0.435V397h30v-7.565
			C710,389.073,709.438,389,709.076,389z"/>
		<path style="fill:#33040E;" d="M589,389.633c0-0.35-0.284-0.633-0.633-0.633h-28.733c-0.35,0-0.633,0.284-0.633,0.633v27.733
			c0,0.35,0.284,0.633,0.633,0.633h28.733c0.35,0,0.633-0.284,0.633-0.633V389.633z"/>
		<path style="fill:#33040E;" d="M0-1v812h1440V-1H0z M600,429h-40.6c-6.878,0-12.4-5.177-12.4-12.055v-27.51
			c0-6.878,5.522-12.435,12.4-12.435H588v-17h12V429z M661,409h-41v7.945c0,0.362-0.15,1.055,0.212,1.055H661v11h-40.788
			c-6.878,0-12.212-5.177-12.212-12.055v-27.51c0-6.878,5.334-12.435,12.212-12.435h28.325c6.878,0,12.464,5.557,12.464,12.435V409z
			 M722,409h-42v7.945c0,0.362,0.39,1.055,0.752,1.055H722v11h-41.248c-6.878,0-12.752-5.177-12.752-12.055v-27.51
			c0-6.878,5.874-12.435,12.752-12.435h28.325c6.878,0,12.924,5.557,12.924,12.435V409z M784,416.945
			c0,6.877-5.154,12.055-12.032,12.055H743v21h-12v-73h40.968c6.878,0,12.032,5.557,12.032,12.435V416.945z M844,409h-41v7.945
			c0,0.362,0.097,1.055,0.459,1.055H844v11h-40.541c-6.878,0-12.459-5.177-12.459-12.055v-27.51c0-6.878,5.582-12.435,12.459-12.435
			h28.325c6.877,0,12.216,5.557,12.216,12.435V409z M893,389h-29.091c-0.362,0-0.909,0.073-0.909,0.435V429h-12v-39.565
			c0-6.878,6.031-12.435,12.909-12.435H893V389z"/>
		<path style="fill:#33040E;" d="M831.784,389h-28.325c-0.362,0-0.459,0.073-0.459,0.435V397h29v-7.565
			C832,389.073,832.146,389,831.784,389z"/>
	</g>
</g>
<g id="Layer_1">
</g>
</svg>
