<?xml version="1.0" encoding="iso-8859-1"?>
<!-- Generator: Adobe Illustrator 19.2.1, SVG Export Plug-In . SVG Version: 6.00 Build 0)  -->
<svg version="1.1" xmlns="http://www.w3.org/2000/svg" xmlns:xlink="http://www.w3.org/1999/xlink" x="0px" y="0px"
	 viewBox="0 0 1440 810" style="enable-background:new 0 0 1440 810;" xml:space="preserve">
<g id="Layer_2">
	<g>
		<path style="fill:#F7931E;" d="M0-1v812h1440V-1H0z M379,475H262.875C243.297,475,227,458.58,227,439.003v-78.31
			C227,341.115,243.297,325,262.875,325H346v-49h33V475z M552,417H434v22.003c0,1.03,0.951,1.997,1.982,1.997H552v34H435.982
			C416.404,475,400,458.58,400,439.003v-78.31C400,341.115,416.404,325,435.982,325h80.628c19.577,0,35.39,16.115,35.39,35.693V417z
			 M724,417H607v22.003c0,1.03,0.283,1.997,1.314,1.997H724v34H608.314C588.736,475,573,458.58,573,439.003v-78.31
			C573,341.115,588.736,325,608.314,325h80.628C708.519,325,724,341.115,724,360.693V417z M904,439.003
			C904,458.58,887.548,475,867.97,475H786v59h-34V325h115.97c19.578,0,36.03,16.115,36.03,35.693V439.003z M1074,417H956v22.003
			c0,1.03,0.581,1.997,1.612,1.997H1074v34H957.612C938.034,475,922,458.58,922,439.003v-78.31C922,341.115,938.034,325,957.612,325
			h80.628c19.577,0,35.76,16.115,35.76,35.693V417z M1213,359h-83.313c-1.031,0-1.687,0.663-1.687,1.693V475h-34V360.693
			c0-19.578,16.109-35.693,35.687-35.693H1213V359z"/>
		<path style="fill:#F7931E;" d="M688.942,359h-80.628c-1.031,0-1.314,0.663-1.314,1.693V383h84v-22.307
			C691,359.663,689.972,359,688.942,359z"/>
		<path style="fill:#F7931E;" d="M516.61,359h-80.628c-1.031,0-1.982,0.663-1.982,1.693V383h84v-22.307
			C518,359.663,517.64,359,516.61,359z"/>
		<path style="fill:#F7931E;" d="M345,360.803c0-0.996-0.807-1.803-1.803-1.803h-80.394c-0.996,0-1.803,0.807-1.803,1.803v78.394
			c0,0.996,0.807,1.803,1.803,1.803h80.394c0.996,0,1.803-0.807,1.803-1.803V360.803z"/>
		<path style="fill:#F7931E;" d="M870,360.803c0-0.996-0.807-1.803-1.803-1.803h-80.394c-0.996,0-1.803,0.807-1.803,1.803v78.394
			c0,0.996,0.807,1.803,1.803,1.803h80.394c0.996,0,1.803-0.807,1.803-1.803V360.803z"/>
		<path style="fill:#F7931E;" d="M1038.24,359h-80.628c-1.031,0-1.612,0.663-1.612,1.693V383h84v-22.307
			C1040,359.663,1039.271,359,1038.24,359z"/>
	</g>
</g>
<g id="Layer_1">
</g>
</svg>
