<?xml version="1.0" encoding="iso-8859-1"?>
<!-- Generator: Adobe Illustrator 19.2.1, SVG Export Plug-In . SVG Version: 6.00 Build 0)  -->
<svg version="1.1" xmlns="http://www.w3.org/2000/svg" xmlns:xlink="http://www.w3.org/1999/xlink" x="0px" y="0px"
	 viewBox="0 0 1440 810" style="enable-background:new 0 0 1440 810;" xml:space="preserve">
<g id="Layer_7">
	<g>
		<path style="fill:#60151E;" d="M563,386.754c0-0.416-0.338-0.754-0.754-0.754h-33.492c-0.417,0-0.754,0.338-0.754,0.754v32.492
			c0,0.416,0.338,0.754,0.754,0.754h33.492c0.417,0,0.754-0.338,0.754-0.754V386.754z"/>
		<path style="fill:#60151E;" d="M706.999,386h-33.72c-0.431,0-0.28,0.039-0.28,0.47V396h35v-9.53
			C708,386.039,707.43,386,706.999,386z"/>
		<path style="fill:#60151E;" d="M782,386.754c0-0.416-0.338-0.754-0.754-0.754h-33.492c-0.416,0-0.754,0.338-0.754,0.754v32.492
			c0,0.416,0.338,0.754,0.754,0.754h33.492c0.416,0,0.754-0.338,0.754-0.754V386.754z"/>
		<path style="fill:#60151E;" d="M634.928,386h-33.72c-0.431,0-1.208,0.039-1.208,0.47V396h36v-9.53
			C636,386.039,635.359,386,634.928,386z"/>
		<path style="fill:#60151E;" d="M853.08,386h-33.72c-0.431,0-0.36,0.039-0.36,0.47V396h35v-9.53
			C854,386.039,853.511,386,853.08,386z"/>
		<path style="fill:#60151E;" d="M0-1v812h1440V-1H0z M578,434h-49.187c-8.188,0-14.813-6.592-14.813-14.779v-32.75
			c0-8.188,6.625-14.47,14.813-14.47H563v-21h15V434z M650,410h-50v9.221c0,0.431,0.777,0.779,1.208,0.779H650v14h-48.792
			c-8.188,0-15.208-6.592-15.208-14.779v-32.75c0-8.188,7.021-14.47,15.208-14.47h33.72c8.188,0,15.072,6.283,15.072,14.47V410z
			 M722,410h-49v9.221c0,0.431-0.151,0.779,0.28,0.779H722v14h-48.72c-8.188,0-15.28-6.592-15.28-14.779v-32.75
			c0-8.188,7.092-14.47,15.28-14.47h33.72c8.188,0,15.001,6.283,15.001,14.47V410z M797,419.221c0,8.187-6.941,14.779-15.129,14.779
			H747v25h-14v-87h48.871c8.188,0,15.129,6.283,15.129,14.47V419.221z M868,410h-49v9.221c0,0.431-0.071,0.779,0.36,0.779H868v14
			h-48.64c-8.188,0-15.36-6.592-15.36-14.779v-32.75c0-8.188,7.173-14.47,15.36-14.47h33.72c8.187,0,14.92,6.283,14.92,14.47V410z
			 M926,386h-34.676c-0.431,0-0.324,0.039-0.324,0.47V434h-15v-47.53c0-8.188,7.136-14.47,15.324-14.47H926V386z"/>
	</g>
</g>
<g id="Layer_1">
</g>
</svg>
