<?xml version="1.0" encoding="iso-8859-1"?>
<!-- Generator: Adobe Illustrator 19.2.1, SVG Export Plug-In . SVG Version: 6.00 Build 0)  -->
<svg version="1.1" xmlns="http://www.w3.org/2000/svg" xmlns:xlink="http://www.w3.org/1999/xlink" x="0px" y="0px"
	 viewBox="0 0 1440 810" style="enable-background:new 0 0 1440 810;" xml:space="preserve">
<g id="Layer_1_1_">
	<g>
		<path style="fill:#FBB03B;" d="M687.243,355h-87.64c-1.12,0-1.604,0.72-1.604,1.841V381h91v-24.159
			C689,355.72,688.363,355,687.243,355z"/>
		<path style="fill:#FBB03B;" d="M884,356.96c0-1.082-0.878-1.96-1.96-1.96h-88.08c-1.082,0-1.96,0.878-1.96,1.96v85.08
			c0,1.082,0.878,1.96,1.96,1.96h88.08c1.082,0,1.96-0.878,1.96-1.96V356.96z"/>
		<path style="fill:#FBB03B;" d="M314,356.96c0-1.082-0.878-1.96-1.96-1.96h-88.08c-1.082,0-1.96,0.878-1.96,1.96v85.08
			c0,1.082,0.878,1.96,1.96,1.96h88.08c1.082,0,1.96-0.878,1.96-1.96V356.96z"/>
		<path style="fill:#FBB03B;" d="M499.926,355h-87.64c-1.12,0-2.286,0.72-2.286,1.841V381h92v-24.159
			C502,355.72,501.045,355,499.926,355z"/>
		<path style="fill:#FBB03B;" d="M0-1v812h1440V-1H0z M351,481H224.126C202.847,481,185,463.24,185,441.96v-85.12
			C185,335.56,202.847,318,224.126,318H314v-53h37V481z M539,418H410v23.96c0,1.12,1.166,2.04,2.286,2.04H539v37H412.286
			C391.006,481,374,463.24,374,441.96v-85.12C374,335.56,391.006,318,412.286,318h87.64c21.28,0,39.074,17.56,39.074,38.841V418z
			 M726,418H598v23.96c0,1.12,0.483,2.04,1.604,2.04H726v37H599.604C578.323,481,561,463.24,561,441.96v-85.12
			C561,335.56,578.323,318,599.604,318h87.64c21.28,0,38.757,17.56,38.757,38.841V418z M920,441.96
			c0,21.279-16.881,39.04-38.161,39.04H792v64h-36V318h125.839c21.28,0,38.161,17.56,38.161,38.841V441.96z M1106,418H977v23.96
			c0,1.12,1.155,2.04,2.275,2.04H1106v37H979.275C957.995,481,941,463.24,941,441.96v-85.12C941,335.56,957.995,318,979.275,318
			h87.64c21.279,0,39.085,17.56,39.085,38.841V418z M1256,355h-89.687c-1.12,0-2.313,0.72-2.313,1.841V481h-36V356.841
			c0-21.28,17.033-38.841,38.313-38.841H1256V355z"/>
		<path style="fill:#FBB03B;" d="M1066.915,355h-87.64c-1.12,0-2.275,0.72-2.275,1.841V381h92v-24.159
			C1069,355.72,1068.035,355,1066.915,355z"/>
	</g>
</g>
<g id="Layer_1">
</g>
</svg>
