<?xml version="1.0" encoding="iso-8859-1"?>
<!-- Generator: Adobe Illustrator 19.2.1, SVG Export Plug-In . SVG Version: 6.00 Build 0)  -->
<svg version="1.1" xmlns="http://www.w3.org/2000/svg" xmlns:xlink="http://www.w3.org/1999/xlink" x="0px" y="0px"
	 viewBox="0 0 1440 810" style="enable-background:new 0 0 1440 810;" xml:space="preserve">
<g id="Layer_6">
	<g>
		<path style="fill:#8C1E26;" d="M704.527,382h-40.143c-0.513,0-1.384,0.428-1.384,0.941V394h42v-11.059
			C705,382.428,705.04,382,704.527,382z"/>
		<path style="fill:#8C1E26;" d="M618.728,382h-40.143c-0.513,0-0.585,0.428-0.585,0.941V394h42v-11.059
			C620,382.428,619.241,382,618.728,382z"/>
		<path style="fill:#8C1E26;" d="M534,382.898c0-0.496-0.402-0.898-0.898-0.898h-40.204c-0.496,0-0.898,0.402-0.898,0.898v39.204
			c0,0.496,0.402,0.898,0.898,0.898h40.204c0.496,0,0.898-0.402,0.898-0.898V382.898z"/>
		<path style="fill:#8C1E26;" d="M795,382.898c0-0.496-0.402-0.898-0.898-0.898h-40.204c-0.496,0-0.898,0.402-0.898,0.898v39.204
			c0,0.496,0.402,0.898,0.898,0.898h40.204c0.496,0,0.898-0.402,0.898-0.898V382.898z"/>
		<path style="fill:#8C1E26;" d="M878.432,382H838.29c-0.513,0-1.29,0.428-1.29,0.941V394h42v-11.059
			C879,382.428,878.946,382,878.432,382z"/>
		<path style="fill:#8C1E26;" d="M0-1v812h1440V-1H0z M550,440h-57.6c-9.747,0-17.4-8.324-17.4-18.071v-38.988
			c0-9.747,7.653-17.941,17.4-17.941H534v-24h16V440z M636,411h-58v10.929c0,0.513,0.072,1.071,0.585,1.071H636v17h-57.415
			c-9.747,0-17.585-8.324-17.585-18.071v-38.988c0-9.747,7.838-17.941,17.585-17.941h40.143c9.747,0,17.272,8.194,17.272,17.941V411
			z M722,411h-59v10.929c0,0.513,0.871,1.071,1.384,1.071H722v17h-57.616c-9.747,0-17.384-8.324-17.384-18.071v-38.988
			c0-9.747,7.637-17.941,17.384-17.941h40.143c9.747,0,17.473,8.194,17.473,17.941V411z M811,421.929
			c0,9.747-7.593,18.071-17.34,18.071H753v29h-17V365h57.66c9.747,0,17.34,8.194,17.34,17.941V421.929z M896,411h-59v10.929
			c0,0.513,0.777,1.071,1.29,1.071H896v17h-57.71c-9.747,0-17.29-8.324-17.29-18.071v-38.988c0-9.747,7.543-17.941,17.29-17.941
			h40.143c9.747,0,17.568,8.194,17.568,17.941V411z M965,382h-41.039c-0.513,0-0.961,0.428-0.961,0.941V440h-17v-57.059
			c0-9.747,8.214-17.941,17.961-17.941H965V382z"/>
	</g>
</g>
<g id="Layer_1">
</g>
</svg>
