<?xml version="1.0" encoding="iso-8859-1"?>
<!-- Generator: Adobe Illustrator 19.2.1, SVG Export Plug-In . SVG Version: 6.00 Build 0)  -->
<svg version="1.1" xmlns="http://www.w3.org/2000/svg" xmlns:xlink="http://www.w3.org/1999/xlink" x="0px" y="0px"
	 viewBox="0 0 1440 810" style="enable-background:new 0 0 1440 810;" xml:space="preserve">
<g id="Layer_4">
	<g>
		<path style="fill:#ED1C24;" d="M576.482,372h-56.891c-0.727,0-1.591,1.01-1.591,1.737V389h60v-15.263
			C578,373.01,577.209,372,576.482,372z"/>
		<path style="fill:#ED1C24;" d="M698.08,372h-56.891c-0.727,0-1.188,1.01-1.188,1.737V389h59v-15.263
			C699,373.01,698.806,372,698.08,372z"/>
		<path style="fill:#ED1C24;" d="M455,373.272c0-0.703-0.57-1.272-1.272-1.272h-56.455c-0.703,0-1.272,0.57-1.272,1.272v55.455
			c0,0.703,0.57,1.272,1.272,1.272h56.455c0.703,0,1.272-0.57,1.272-1.272V373.272z"/>
		<path style="fill:#ED1C24;" d="M825,373.272c0-0.703-0.57-1.272-1.272-1.272h-56.455c-0.703,0-1.272,0.57-1.272,1.272v55.455
			c0,0.703,0.57,1.272,1.272,1.272h56.455c0.703,0,1.272-0.57,1.272-1.272V373.272z"/>
		<path style="fill:#ED1C24;" d="M0-1v812h1440V-1H0z M480,454h-82.554C383.633,454,372,442.806,372,428.993v-55.256
			C372,359.923,383.633,349,397.446,349H456v-35h24V454z M602,413h-84v15.993c0,0.727,0.864,1.007,1.591,1.007H602v24h-82.409
			C505.777,454,495,442.806,495,428.993v-55.256C495,359.923,505.777,349,519.591,349h56.891C590.296,349,602,359.923,602,373.737
			V413z M723,413h-83v15.993c0,0.727,0.461,1.007,1.188,1.007H723v24h-81.812C627.374,454,616,442.806,616,428.993v-55.256
			C616,359.923,627.374,349,641.188,349h56.891c13.814,0,24.92,10.923,24.92,24.737V413z M849,428.993
			C849,442.806,838.216,454,824.402,454H766v42h-24V349h82.402C838.216,349,849,359.923,849,373.737V428.993z M970,413h-84v15.993
			c0,0.727,0.926,1.007,1.653,1.007H970v24h-82.347C873.839,454,863,442.806,863,428.993v-55.256
			C863,359.923,873.839,349,887.653,349h56.891C958.358,349,970,359.923,970,373.737V413z M1068,372h-58.931
			c-0.727,0-1.069,1.01-1.069,1.737V454h-24v-80.263c0-13.814,11.255-24.737,25.069-24.737H1068V372z"/>
		<path style="fill:#ED1C24;" d="M944.544,372h-56.891c-0.727,0-1.653,1.01-1.653,1.737V389h60v-15.263
			C946,373.01,945.271,372,944.544,372z"/>
	</g>
</g>
<g id="Layer_1">
</g>
</svg>
