<?xml version="1.0" encoding="iso-8859-1"?>
<!-- Generator: Adobe Illustrator 19.2.1, SVG Export Plug-In . SVG Version: 6.00 Build 0)  -->
<svg version="1.1" xmlns="http://www.w3.org/2000/svg" xmlns:xlink="http://www.w3.org/1999/xlink" x="0px" y="0px"
	 viewBox="0 0 1440 810" style="enable-background:new 0 0 1440 810;" xml:space="preserve">
<g id="Layer_5">
	<g>
		<path style="fill:#C1272D;" d="M701.584,378h-47.789c-0.611,0-0.795,0.128-0.795,0.739V392h50v-13.261
			C703,378.128,702.194,378,701.584,378z"/>
		<path style="fill:#C1272D;" d="M599.442,378h-47.789c-0.611,0-0.653,0.128-0.653,0.739V392h50v-13.261
			C601,378.128,600.052,378,599.442,378z"/>
		<path style="fill:#C1272D;" d="M498,379.069c0-0.59-0.478-1.069-1.069-1.069h-47.863c-0.59,0-1.069,0.479-1.069,1.069v46.862
			c0,0.59,0.478,1.069,1.069,1.069h47.863c0.59,0,1.069-0.479,1.069-1.069V379.069z"/>
		<path style="fill:#C1272D;" d="M809,379.069c0-0.59-0.479-1.069-1.069-1.069h-47.862c-0.59,0-1.069,0.479-1.069,1.069v46.862
			c0,0.59,0.479,1.069,1.069,1.069h47.862c0.59,0,1.069-0.479,1.069-1.069V379.069z"/>
		<path style="fill:#C1272D;" d="M0-1v812h1440V-1H0z M518,446h-68.948C437.448,446,428,436.757,428,425.154v-46.415
			c0-11.604,9.448-20.739,21.052-20.739H498v-29h20V446z M621,412h-70v13.154c0,0.611,0.042,0.846,0.653,0.846H621v20h-69.347
			C540.049,446,531,436.757,531,425.154v-46.415c0-11.604,9.049-20.739,20.653-20.739h47.789c11.604,0,21.558,9.135,21.558,20.739
			V412z M723,412h-70v13.154c0,0.611,0.184,0.846,0.795,0.846H723v20h-69.205C642.191,446,633,436.757,633,425.154v-46.415
			c0-11.604,9.191-20.739,20.795-20.739h47.789c11.604,0,21.416,9.135,21.416,20.739V412z M829,425.154
			c0,11.603-9.702,20.846-21.306,20.846H759v35h-20V358h68.694c11.604,0,21.306,9.135,21.306,20.739V425.154z M930,412h-70v13.154
			c0,0.611,0.214,0.846,0.825,0.846H930v20h-69.175C849.221,446,840,436.757,840,425.154v-46.415
			c0-11.604,9.221-20.739,20.825-20.739h47.789c11.603,0,21.386,9.135,21.386,20.739V412z M1012,378h-49.185
			c-0.611,0-0.815,0.128-0.815,0.739V446h-20v-67.261c0-11.604,9.211-20.739,20.815-20.739H1012V378z"/>
		<path style="fill:#C1272D;" d="M908.614,378h-47.789c-0.611,0-0.825,0.128-0.825,0.739V392h50v-13.261
			C910,378.128,909.225,378,908.614,378z"/>
	</g>
</g>
<g id="Layer_1">
</g>
</svg>
