<svg width="256" height="64" fill="none" xmlns="http://www.w3.org/2000/svg">
  <g clip-path="url(#clip0)" fill="#fff">
    <path d="M39.1646 56.4569c4.0221-.0084 7.2758-3.2986 7.2673-7.3486-.0084-4.0501-3.2757-7.3265-7.2978-7.318-4.022.0085-7.2757 3.2986-7.2673 7.3487.0084 4.0501 3.2758 7.3264 7.2978 7.3179zM54.861 32.8502c.0288-4.05-3.2083-7.3567-7.2302-7.3856-4.022-.029-7.3058 3.2306-7.3345 7.2806-.0288 4.05 3.2083 7.3567 7.2302 7.3856 4.022.029 7.3058-3.2306 7.3345-7.2806zM40.1728 23.3165c4.0221-.0043 7.2792-3.291 7.275-7.3411-.0042-4.05-3.2682-7.32985-7.2902-7.32561-4.0221.00424-7.2792 3.29091-7.275 7.34101.0042 4.0501 3.2682 7.3299 7.2902 7.3257zM22.5319 18.6709c4.022-.0276 7.2603-3.3331 7.2329-7.3831-.0274-4.05002-3.31-7.31084-7.332-7.28327-4.022.02757-7.2602 3.33308-7.2328 7.38307.0273 4.05 3.31 7.3108 7.3319 7.2833zM15.1346 22.3934c.0168-4.05-3.23-7.347-7.25201-7.3639C3.86056 15.0125.586415 18.282.569568 22.332.55272 26.3821 3.79955 29.679 7.82158 29.696c4.02202.017 7.29612-3.2525 7.31302-7.3026zM14.5693 40.787c.0197-4.05-3.2249-7.3493-7.24688-7.3691-4.02201-.0198-7.2984253 3.2474-7.31808075 7.2974C-.0153161 44.7654 3.22923 48.0646 7.25124 48.0844c4.02206.0198 7.29846-3.2473 7.31806-7.2974zM21.2626 59.998c4.022-.0255 7.262-3.3293 7.2367-7.3793-.0253-4.05-3.3062-7.3125-7.3282-7.2871-4.022.0255-7.2619 3.3293-7.2367 7.3793.0253 4.05 3.3062 7.3125 7.3282 7.2871zM189.157 23.1746c-1.903 0-3.763.5682-5.346 1.6328-1.582 1.0647-2.815 2.5779-3.543 4.3483-.729 1.7704-.919 3.7185-.548 5.598.371 1.8794 1.288 3.6058 2.633 4.9608 1.346 1.355 3.06 2.2778 4.927 2.6517 1.866.3738 3.801.1819 5.559-.5514 1.758-.7333 3.261-1.9752 4.318-3.5685 1.058-1.5933 1.622-3.4666 1.622-5.3829 0-2.5696-1.014-5.034-2.818-6.851-1.805-1.817-4.252-2.8378-6.804-2.8378zm0 17.2381c-1.492.0378-2.961-.373-4.22-1.1802-1.258-.8071-2.249-1.9738-2.846-3.351-.597-1.3773-.772-2.9024-.504-4.3805.268-1.4782.968-2.8422 2.01-3.9177 1.042-1.0756 2.379-1.8138 3.84-2.1204 1.461-.3066 2.979-.1676 4.361.3992 1.382.5668 2.565 1.5357 3.397 2.7828.833 1.2472 1.277 2.7159 1.276 4.2185.013.9795-.167 1.9518-.528 2.8614-.361.9095-.896 1.7386-1.575 2.4397-.679.7011-1.489 1.2605-2.383 1.6463-.894.3857-1.855.5903-2.828.6019zM69.4395 23.4919h6.3557c6.3052 0 9.3128 4.5334 9.3128 9.1429 0 4.7746-2.831 9.5238-9.3128 9.5238h-6.3557V23.4919zm13.3671 9.1175c0-3.4667-2.2762-6.8762-7.0114-6.8762h-4.0543v14.127h4.0543c4.9118 0 7.0114-3.6762 7.0114-7.2508zM107.316 23.4919h2.302v18.6858h-2.302V23.4919zM117.197 23.4919l11.349 14.3112V23.4919h2.276v18.6858h-1.563l-11.4-14.254v14.254h-2.283V23.4919h1.621zM155.544 23.4919l4.319 15.4286 4.742-15.4349h1.482l4.785 15.4349 4.269-15.4349h2.623l-5.675 18.6857h-2.301l-4.414-13.9682-4.414 13.9682h-2.326l-5.675-18.6857 2.585.0063zM137 23.4919h2.276v18.6858H137V23.4919zM147.543 23.4919h2.887l-8.095 8.9969 8.896 9.6889h-2.862l-9.08-9.6064 8.254-9.0794zM220.955 23.4919h2.251v18.6858h-2.276l.025-18.6858zM231.504 23.4919h2.888l-8.102 9.327 8.896 9.3588h-2.862l-9.08-9.2699 8.26-9.4159zM244.253 25.1745c-2.03 0-4.086 1.0603-4.086 3.0667 0 1.5301 1.507 2.6158 4.244 3.1746 3.783.8127 6.576 1.9047 6.576 5.7142 0 3.5429-3.234 5.3969-6.633 5.3969-1.315-.0124-2.611-.3117-3.8-.8773-1.188-.5656-2.241-1.384-3.085-2.3989l1.633-1.5238c.644.7914 1.447 1.436 2.357 1.8914.91.4553 1.905.7109 2.92.7498 1.949 0 4.332-1.1301 4.332-3.3142 0-1.981-1.639-2.9588-4.565-3.5747-3.562-.7492-6.261-2.0888-6.261-5.3206 0-3.3587 3.108-5.0794 6.305-5.0794 1.147-.0202 2.282.2346 3.311.7436 1.03.509 1.924 1.2574 2.61 2.1834l-1.558 1.4032c-.487-.6916-1.131-1.2556-1.88-1.6444-.748-.3889-1.578-.5914-2.42-.5905zM216.725 42.1777l-6.129-7.1175c3.815-.4064 5.347-2.9587 5.322-5.746 0-3.0413-2.093-5.8223-6.305-5.8223h-6.816v18.6858h2.308v-7.0286h2.66l6.041 7.0286h2.919zm-11.62-16.5905h4.539c2.68 0 4.004 1.9047 3.979 3.8095 0 2.1079-1.299 3.6952-4.08 3.6952h-4.413l-.025-7.5047zM103.085 42.1777l-6.1165-7.1175c3.8145-.4064 5.3465-2.9587 5.3215-5.746 0-3.0413-2.093-5.8223-6.3051-5.8223h-6.8287v18.6858h2.3078v-7.0286h2.6608l6.0402 7.0286h2.92zM91.464 25.5872h4.5398c2.6797 0 4.0042 1.9047 3.9786 3.8095 0 2.1079-1.2989 3.6952-4.0795 3.6952h-4.4137l-.0252-7.5047zM252.406 25.3652c.018-.3533.139-.6933.348-.9781.208-.2848.495-.5018.824-.6243.33-.1225.688-.145 1.03-.0648.342.0802.653.2596.895.5161.242.2564.404.5787.466.9269.062.3481.022.707-.117 1.0321-.138.3251-.368.6023-.661.7972-.293.195-.637.2991-.988.2996-.245.0032-.488-.0447-.714-.1406-.225-.0959-.429-.2377-.598-.4165-.168-.1789-.299-.3909-.382-.6228-.084-.2319-.119-.4787-.103-.7248zm3.298 0c-.014-.2955-.113-.5805-.286-.8197-.173-.2391-.412-.4219-.687-.5256-.275-.1038-.575-.1239-.861-.058-.286.066-.547.2151-.75.429-.203.2138-.339.483-.392.7741-.052.291-.019.5912.096.8633.116.272.308.504.553.6672.245.1632.532.2503.826.2506.204.003.406-.0364.594-.1157.188-.0793.358-.1968.499-.3452.141-.1484.249-.3245.32-.5172.07-.1927.1-.3979.088-.6028zm-2.15-1.0477h.687c.152-.0235.307.0147.431.1064.125.0917.207.2293.231.3825.023.1533-.015.3096-.106.4346s-.227.2085-.38.2321l.631.8952h-.315l-.631-.8508h-.296v.8762h-.278l.026-2.0762zm.687.9143c.046.0068.092.0031.136-.0107.045-.0138.085-.0374.119-.0691.034-.0317.06-.0706.077-.1139.017-.0434.024-.09.021-.1364 0-.2032-.12-.3238-.353-.3238h-.41v.6349l.41.019z"/>
  </g>
  <defs>
    <clipPath id="clip0">
      <path fill="#fff" transform="translate(0 4)" d="M0 0h256v56H0z"/>
    </clipPath>
  </defs>
</svg>
