<svg width="388" height="85" viewBox="0 0 388 85" fill="none" xmlns="http://www.w3.org/2000/svg">
<g clip-path="url(#clip0)">
<path d="M59.3573 79.056C65.4532 79.0432 70.3846 74.0848 70.3718 67.9811C70.3591 61.8773 65.407 56.9397 59.3111 56.9524C53.2152 56.9652 48.2838 61.9236 48.2966 68.0274C48.3093 74.1311 53.2614 79.0688 59.3573 79.056Z" fill="white"/>
<path d="M83.1498 43.4791C83.1934 37.3755 78.2872 32.3922 72.1914 32.3485C66.0957 32.3048 61.1187 37.2173 61.0751 43.3209C61.0315 49.4245 65.9377 54.4078 72.0335 54.4515C78.1292 54.4952 83.1062 49.5827 83.1498 43.4791Z" fill="white"/>
<path d="M60.885 29.1109C66.9809 29.1045 71.9175 24.1513 71.9111 18.0476C71.9047 11.9438 66.9578 7.00096 60.8619 7.00735C54.7659 7.01374 49.8294 11.967 49.8358 18.0707C49.8422 24.1744 54.7891 29.1173 60.885 29.1109Z" fill="white"/>
<path d="M34.1506 22.11C40.2463 22.0684 45.1543 17.0868 45.1128 10.9832C45.0713 4.87964 40.0961 -0.0346197 34.0003 0.00692676C27.9045 0.0484732 22.9965 5.03009 23.038 11.1337C23.0795 17.2373 28.0548 22.1515 34.1506 22.11Z" fill="white"/>
<path d="M22.9378 27.72C22.9633 21.6163 18.0423 16.6476 11.9464 16.622C5.85056 16.5964 0.888175 21.5237 0.862641 27.6274C0.837106 33.7311 5.75809 38.6998 11.854 38.7254C17.9498 38.7509 22.9122 33.8237 22.9378 27.72Z" fill="white"/>
<path d="M22.0802 55.4403C22.11 49.3366 17.1924 44.3644 11.0966 44.3346C5.00072 44.3048 0.0349021 49.2286 0.00511184 55.3323C-0.0246784 61.4359 4.89284 66.4081 10.9887 66.4379C17.0846 66.4677 22.0504 61.5439 22.0802 55.4403Z" fill="white"/>
<path d="M32.2269 84.3925C38.3227 84.3541 43.2333 79.3751 43.195 73.2715C43.1567 67.1678 38.184 62.251 32.0882 62.2893C25.9924 62.3277 21.0818 67.3067 21.1201 73.4103C21.1584 79.514 26.1311 84.4308 32.2269 84.3925Z" fill="white"/>
<path d="M286.692 28.8973C283.808 28.8973 280.989 29.7537 278.591 31.3582C276.192 32.9626 274.323 35.2431 273.219 37.9112C272.116 40.5794 271.827 43.5153 272.39 46.3478C272.952 49.1802 274.341 51.782 276.381 53.8241C278.42 55.8662 281.019 57.2569 283.847 57.8203C286.676 58.3837 289.608 58.0945 292.273 56.9894C294.938 55.8842 297.215 54.0126 298.818 51.6114C300.42 49.2102 301.276 46.3871 301.276 43.4991C301.276 39.6265 299.739 35.9125 297.004 33.1741C294.269 30.4357 290.56 28.8973 286.692 28.8973ZM286.692 54.8762C284.432 54.9333 282.205 54.3141 280.297 53.0977C278.39 51.8813 276.887 50.123 275.983 48.0474C275.078 45.9719 274.812 43.6734 275.219 41.4458C275.626 39.2181 276.686 37.1625 278.266 35.5415C279.845 33.9206 281.871 32.808 284.085 32.346C286.3 31.8839 288.601 32.0934 290.696 32.9476C292.79 33.8019 294.583 35.262 295.844 37.1416C297.106 39.0211 297.779 41.2345 297.778 43.4991C297.797 44.9751 297.525 46.4405 296.978 47.8113C296.431 49.1821 295.62 50.4315 294.59 51.4881C293.561 52.5447 292.333 53.3878 290.978 53.9692C289.623 54.5505 288.167 54.8587 286.692 54.8762Z" fill="white"/>
<path d="M105.244 29.3757H114.877C124.433 29.3757 128.992 36.2077 128.992 43.1546C128.992 50.3502 124.701 57.5076 114.877 57.5076H105.244V29.3757ZM125.504 43.1163C125.504 37.8918 122.054 32.7535 114.877 32.7535H108.732V54.0437H114.877C122.321 54.0437 125.504 48.5035 125.504 43.1163Z" fill="white"/>
<path d="M162.65 29.3757H166.138V57.5363H162.65V29.3757Z" fill="white"/>
<path d="M177.626 29.3757L194.827 50.9435V29.3757H198.277V57.5363H195.907L178.629 36.0546V57.5363H175.17V29.3757H177.626Z" fill="white"/>
<path d="M235.746 29.3758L242.292 52.6276L249.479 29.3662H251.725L258.978 52.6276L265.448 29.3662H269.423L260.822 57.5267H257.334L250.645 36.4757L243.955 57.5267H240.429L231.828 29.3662L235.746 29.3758Z" fill="white"/>
<path d="M207.643 29.3757H211.092V57.5363H207.643V29.3757Z" fill="white"/>
<path d="M223.621 29.3757H227.997L215.727 42.9345L229.211 57.5363H224.873L211.111 43.0589L223.621 29.3757Z" fill="white"/>
<path d="M334.886 29.3757H338.297V57.5363H334.848L334.886 29.3757Z" fill="white"/>
<path d="M350.872 29.3757H355.249L342.969 43.4321L356.453 57.5363H352.115L338.354 43.566L350.872 29.3757Z" fill="white"/>
<path d="M370.197 31.9114C367.12 31.9114 364.004 33.5094 364.004 36.5331C364.004 38.8391 366.288 40.4754 370.436 41.3174C376.17 42.5422 380.403 44.188 380.403 49.9292C380.403 55.2685 375.501 58.0625 370.35 58.0625C368.357 58.0439 366.392 57.5929 364.591 56.7405C362.789 55.8881 361.194 54.6546 359.914 53.1251L362.389 50.8286C363.365 52.0213 364.583 52.9929 365.962 53.6791C367.34 54.3653 368.849 54.7505 370.388 54.8092C373.341 54.8092 376.953 53.106 376.953 49.8144C376.953 46.8289 374.468 45.3554 370.034 44.4272C364.635 43.2981 360.545 41.2791 360.545 36.4087C360.545 31.3469 365.256 28.7538 370.101 28.7538C371.839 28.7232 373.56 29.1073 375.12 29.8744C376.68 30.6414 378.036 31.7694 379.075 33.1649L376.714 35.2796C375.976 34.2372 374.999 33.3874 373.865 32.8013C372.731 32.2153 371.473 31.9101 370.197 31.9114Z" fill="white"/>
<path d="M328.473 57.5363L319.185 46.8098C324.966 46.1974 327.288 42.3508 327.25 38.1502C327.25 33.5668 324.077 29.3757 317.694 29.3757H307.363V57.5363H310.861V46.9438H314.894L324.049 57.5363H328.473ZM310.861 32.5334H317.742C321.803 32.5334 323.81 35.404 323.772 38.2746C323.772 41.4514 321.803 43.8435 317.589 43.8435H310.899L310.861 32.5334Z" fill="white"/>
<path d="M156.237 57.5363L146.967 46.8098C152.749 46.1974 155.071 42.3508 155.033 38.1502C155.033 33.5668 151.86 29.3757 145.477 29.3757H135.127V57.5363H138.625V46.9438H142.657L151.812 57.5363H156.237ZM138.625 32.5334H145.505C149.567 32.5334 151.574 35.404 151.535 38.2746C151.535 41.4514 149.567 43.8435 145.352 43.8435H138.663L138.625 32.5334Z" fill="white"/>
<path d="M382.552 32.1985C382.58 31.6662 382.764 31.1537 383.079 30.7245C383.395 30.2953 383.83 29.9682 384.329 29.7837C384.829 29.5991 385.371 29.5651 385.89 29.686C386.408 29.8069 386.88 30.0773 387.247 30.4638C387.613 30.8503 387.859 31.3359 387.953 31.8606C388.047 32.3853 387.985 32.9261 387.776 33.4161C387.566 33.9061 387.217 34.3238 386.773 34.6176C386.329 34.9114 385.808 35.0684 385.276 35.0691C384.905 35.0738 384.536 35.0017 384.194 34.8572C383.852 34.7127 383.544 34.499 383.288 34.2295C383.032 33.9599 382.835 33.6404 382.708 33.2909C382.582 32.9414 382.529 32.5695 382.552 32.1985ZM387.55 32.1985C387.53 31.7532 387.379 31.3237 387.117 30.9633C386.855 30.6029 386.493 30.3274 386.076 30.1711C385.659 30.0147 385.205 29.9844 384.771 30.0838C384.337 30.1832 383.942 30.4079 383.634 30.7302C383.327 31.0525 383.12 31.4581 383.041 31.8968C382.961 32.3354 383.012 32.7878 383.187 33.1979C383.361 33.6079 383.653 33.9575 384.024 34.2034C384.395 34.4493 384.831 34.5806 385.276 34.5811C385.585 34.5856 385.891 34.5263 386.176 34.4067C386.461 34.2872 386.719 34.1101 386.932 33.8864C387.146 33.6628 387.311 33.3975 387.417 33.1071C387.523 32.8166 387.569 32.5073 387.55 32.1985ZM384.292 30.6197H385.333C385.564 30.5842 385.799 30.6418 385.987 30.78C386.176 30.9182 386.301 31.1255 386.337 31.3565C386.372 31.5874 386.315 31.823 386.177 32.0114C386.039 32.1999 385.832 32.3257 385.601 32.3612L386.556 33.7104H386.079L385.123 32.4282H384.674V33.7486H384.253L384.292 30.6197ZM385.333 31.9976C385.403 32.0078 385.473 32.0023 385.54 31.9815C385.607 31.9606 385.669 31.925 385.72 31.8773C385.771 31.8295 385.811 31.7708 385.837 31.7055C385.863 31.6402 385.873 31.57 385.868 31.5C385.868 31.1938 385.687 31.012 385.333 31.012H384.712V31.9689L385.333 31.9976Z" fill="white"/>
</g>
<defs>
<clipPath id="clip0">
<rect width="388" height="84.3955" fill="white"/>
</clipPath>
</defs>
</svg>
