<?xml version="1.0" encoding="utf-8"?>
<!-- Generator: Adobe Illustrator 16.0.0, SVG Export Plug-In . SVG Version: 6.00 Build 0)  -->
<!DOCTYPE svg PUBLIC "-//W3C//DTD SVG 1.1//EN" "http://www.w3.org/Graphics/SVG/1.1/DTD/svg11.dtd">
<svg version="1.1" id="Layer_1" xmlns="http://www.w3.org/2000/svg" xmlns:xlink="http://www.w3.org/1999/xlink" x="0px" y="0px"
	 width="180px" height="600px" viewBox="0 0 180 600" enable-background="new 0 0 180 600" xml:space="preserve">
<path d="M38.796,11.416h7.842V49h-8.316V31.126l-0.162-0.054l-3.402,7.614l-2.538,5.292h-6.372l-2.646-5.562l-3.294-7.344
	l-0.162,0.162V49H11.43V11.416h7.518l5.083,10.908l4.868,11.286h0.216l4.706-11.286L38.796,11.416z M86.814,19.948
	c0.684,1.8,1.026,3.744,1.026,5.832v8.856c0,2.232-0.351,4.257-1.053,6.075c-0.702,1.818-1.693,3.367-2.97,4.644
	c-1.278,1.278-2.827,2.26-4.644,2.943c-1.818,0.685-3.843,1.026-6.075,1.026c-2.449,0-4.582-0.396-6.399-1.188
	c-1.818-0.792-3.33-1.863-4.536-3.213c-1.207-1.35-2.106-2.916-2.7-4.698c-0.594-1.782-0.891-3.645-0.891-5.589V25.78
	c0-1.944,0.297-3.797,0.891-5.562c0.594-1.763,1.494-3.321,2.7-4.671c1.206-1.35,2.718-2.42,4.536-3.213
	c1.817-0.792,3.951-1.188,6.399-1.188c2.268,0,4.311,0.37,6.129,1.107c1.817,0.738,3.366,1.755,4.644,3.051
	C85.149,16.6,86.13,18.148,86.814,19.948z M79.362,25.024c0-1.655-0.552-3.086-1.654-4.293c-1.103-1.206-2.667-1.809-4.691-1.809
	c-1.049,0-1.953,0.171-2.712,0.513c-0.759,0.342-1.391,0.801-1.897,1.377c-0.506,0.576-0.886,1.233-1.139,1.971
	c-0.253,0.738-0.38,1.485-0.38,2.241V35.23c0,0.829,0.127,1.62,0.38,2.376s0.633,1.422,1.139,1.998
	c0.506,0.576,1.138,1.044,1.897,1.404c0.759,0.36,1.663,0.54,2.712,0.54c2.025,0,3.588-0.602,4.691-1.809
	c1.103-1.206,1.654-2.708,1.654-4.509V25.024z M122.184,33.016L129.365,49h-9.396l-5.939-14.526h-5.4V49h-8.316V11.416h16.633
	c1.656,0,3.213,0.252,4.672,0.756c1.457,0.505,2.744,1.234,3.859,2.187c1.117,0.955,1.998,2.133,2.646,3.537
	s0.973,3.006,0.973,4.806c0,2.268-0.586,4.312-1.756,6.129C126.17,30.649,124.451,32.044,122.184,33.016z M120.455,22.756
	c0-1.404-0.432-2.411-1.295-3.024c-0.865-0.612-1.998-0.918-3.402-0.918h-7.129v8.208h6.859c1.512,0,2.717-0.359,3.617-1.08
	C120.006,25.222,120.455,24.16,120.455,22.756z M168.57,18.868v-7.452h-26.568V49h8.316V33.988h15.551v-7.182h-15.551v-7.938H168.57
	z"/>
<path d="M14.525,291c-1.25,0-2.75,0.95-2.75-17.801c0-24.702,2.6-23.802,3.45-23.802h4.601c1.95,0,2.649,0,5.1,3.35
	c4.7,6.451,5.001,10.101,6.001,10.101c0.75,0,1.05-3.65,6.35-10.101c2.801-3.4,3.551-3.35,5.501-3.35h3.9
	c0.85,0,3.45-0.9,3.45,23.802c0,18.751-1.5,17.801-2.75,17.801h-6.4c-0.601,0-1.801,0.15-1.801-0.75c0-0.7,2.851-9.7,2.851-22.751
	c0-1.05,0.149-7.2-1.5-7.2c-1.45,0-3.351,4.95-3.851,6.15c-4.2,10.25-2.5,14.951-5.851,14.951c-4.2,0-2.55-4.7-7-14.951
	c-0.5-1.1-2.15-6.15-3.7-6.15c-1.65,0-1.601,6.15-1.601,7.2c0,13.051,3.15,22.051,3.15,22.751c0,0.9-1.2,0.75-1.8,0.75H14.525z
	 M73.926,291.75c-10.101,0-14.051-7.25-14.051-15.901c0-12.851,7.2-27.201,16.551-27.201s16.551,14.351,16.551,27.201
	c0,8.651-3.95,15.901-14.051,15.901H73.926z M84.876,274.749c0-11.051-5.1-18.001-8.45-18.001s-8.45,6.95-8.45,18.001
	c0,5.851,3.15,8.101,8.45,8.101C81.727,282.85,84.876,280.6,84.876,274.749z M119.425,249.397c9.301,0,11.651,5.1,11.651,9.351
	c0,8-7.501,10.45-7.501,11.851s9.001,7.95,9.001,19.751c0,0.551-0.201,0.65-1.25,0.65h-5.65c-0.9,0-2.451,0.15-2.451-0.65
	c0-5.65-4-15.801-6.9-15.801c-1.5,0-5.15,2.051-5.15,4.851c0,3.8,1.851,10.65,1.851,11.001c0,0.85-1.25,0.6-1.75,0.6h-5.8
	c-1.251,0-2.751,0.95-2.751-17.801c0-24.702,2.601-23.802,3.45-23.802H119.425z M122.975,259.598c0-3.15-2.949-4.3-5.65-4.3
	c-4.55,0-6.55,1.65-6.5,10.301c0,1.05,0.051,3.05,1.551,3.05C114.074,268.648,122.975,264.198,122.975,259.598z M165.825,249.397
	c0.6,0,2.399-0.15,2.399,0.85c0,0.4-3.199,7.4-3.85,7.4c-0.85,0-2.35-2.35-7.25-2.35c-3.451,0-7.102,2.05-7.102,6.851
	c0,3,0.15,3.95,1.601,3.95c3.251,0,3.55-2.3,10.151-2.3c0.549,0,1.699,0,1.699,0.85c0,0.25-1.949,8.051-2.8,8.051
	c-0.5,0-1.851-0.7-3.8-0.7c-4.4,0-6.602,2.55-6.602,6.65c0,4.351,2,11.351,1.951,11.9c0.049,0.601-1.201,0.45-1.65,0.45h-5.9
	c-1.25,0-2.75,0.95-2.75-17.801c0-24.702,2.6-23.802,3.449-23.802H165.825z"/>
<path d="M56.97,441.741c-4.08,12.419-12.779,27.238-17.759,27.238c-1.44,0-2.46-0.899-2.46-2.64
	c0-7.319,17.759-34.438,29.399-34.438c4.38,0,5.82,2.64,5.58,6.54c-1.44,1.02-2.94,2.22-4.32,3.6c0.3-1.8,1.44-6.3-1.74-6.3
	c-8.459,0-22.439,20.879-24.119,28.559c-0.12,0.66,0.72,0.84,0.9,0.24C44.611,457.46,51.21,447.621,56.97,441.741z M58.53,433.881
	c-1.5,1.021-3,2.221-4.5,3.601c1.5-7.021,0.84-12.72-4.02-12.72c-2.58,0-5.58,2.1-7.02,5.22c-0.42,0.96-1.2,1.38-1.92,1.38
	c-0.96,0-1.8-0.72-1.8-1.859c0-2.101,4.26-8.4,10.62-8.4C56.791,421.102,59.13,426.682,58.53,433.881z M82.769,460.221
	c0.9,0,1.68,0.779,1.68,1.68c0,0.479-0.18,0.96-0.48,1.26c-3.48,3.479-6.18,5.04-9.24,5.04c-2.76,0-5.4-1.681-5.4-5.521
	c0-7.68,11.58-15.839,11.58-20.938c0-1.26-0.6-1.92-1.62-1.92c-7.98,0-19.02,18.06-21.899,25.619c-0.24,0.659,0.6,0.899,0.9,0.3
	c2.94-6.66,7.14-13.619,11.94-19.02c-3.18,10.02-10.08,22.799-14.34,22.799c-1.32,0-2.4-0.96-2.4-2.88
	c0-7.02,15.359-30.778,26.759-30.778c3.12,0,4.859,1.859,4.859,5.16c0,8.399-11.579,15.179-11.579,21.658c0,1.2,0.9,1.74,1.979,1.74
	c1.38,0,3.54-1.26,6-3.72C81.809,460.4,82.289,460.221,82.769,460.221z M85.291,457.28c-0.42,1.26-0.66,2.58-0.66,3.84
	c0,0.48,0,0.9,0.06,1.32l-0.72,0.72c-0.3,0.3-0.78,0.48-1.26,0.48c-0.9,0-1.68-0.78-1.68-1.681c0-0.479,0.18-0.96,0.48-1.26
	C82.831,459.38,83.911,458.36,85.291,457.28z M98.25,447.381c1.021,0,1.92,0.24,2.58,0.66c-0.3,0-0.54,0.06-0.78,0.12
	c-1.5,0.42-2.76,1.619-3.66,3.119c-3.72,1.5-6.779,6-6.779,9.72c0,1.8,0.9,2.88,2.64,2.88c1.74,0,3.66-1.02,5.04-2.699
	c0.9,0.779,2.1,1.26,3.66,1.38c-2.04,2.819-5.221,4.979-9.06,4.979c-4.38,0-6.36-2.7-6.36-6.42
	C85.531,454.94,91.59,447.381,98.25,447.381z M101.489,461.66c-3.779,0-5.398-2.76-5.398-5.64c0-3.42,2.039-7.08,5.039-7.08
	c1.74,0,3,1.44,3,4.14c0,1.021-0.18,2.221-0.6,3.601c-0.301,0.18-0.78,0.359-1.44,0.359c-0.96,0-1.319-0.84-1.26-1.8
	c0-0.779,0.3-1.68,0.72-2.16c0.42-0.479-0.119-1.199-0.72-0.539c-0.54,0.6-0.96,1.739-0.96,2.819c0,1.32,0.54,2.521,2.039,2.521
	c0.301,0,0.66,0,1.08-0.12c1.5-0.36,2.4,0.659,2.4,1.739c0,0.78-0.48,1.62-1.561,1.86C102.989,461.54,102.21,461.66,101.489,461.66z
	 M101.431,459.681c0-0.841,0.479-1.681,1.56-1.92c1.62-0.42,5.28-1.86,7.319-4.86c1.08,0.72,2.34,1.08,3.42,1.38
	c-1.979,3.3-6.24,6.18-9.899,7.08C102.33,461.721,101.431,460.76,101.431,459.681z M120.929,460.221c0.9,0,1.681,0.779,1.681,1.68
	c0,0.479-0.181,0.96-0.479,1.26c-2.76,2.76-4.68,4.14-7.02,4.14s-4.201-1.2-4.201-4.08c0-4.26,5.58-6.72,5.58-8.579
	c0-1.62-7.739-0.6-7.739-6.479c0-1.92,1.62-3.24,3.18-3.24c2.22,0,3.3,1.2,3.3,3.6c0,0.3,0,0.48-0.061,0.78
	c-1.619-0.3-2.039-0.66-2.219-1.08c-0.24-0.66-1.141-0.3-0.9,0.36c1.08,2.76,8.4,0.72,8.4,6.119c0,4.08-5.281,6.06-5.281,8.16
	c0,0.6,0.24,0.72,0.841,0.72s2.04-1.26,3.659-2.88C119.97,460.4,120.45,460.221,120.929,460.221z M126.51,453.44
	c-1.14,2.82-2.28,5.52-3.181,8.52l-1.199,1.2c-0.301,0.3-0.779,0.48-1.26,0.48c-0.9,0-1.68-0.78-1.68-1.681
	c0-0.479,0.18-0.96,0.479-1.26C121.17,459.2,123.749,456.561,126.51,453.44z M124.829,474.199c0,0.54,0.121,0.78,0.361,0.78
	c1.079,0,2.819-6.06,3.059-7.859c1.141,0.24,2.58,0.24,3.78-0.12c-1.2,6.779-3.96,12.3-7.859,12.3c-1.8,0-3.06-1.38-3.06-4.14
	c0-3.54,1.68-9.6,5.159-18.66c5.22-13.499,10.02-25.078,14.759-25.078c1.621,0,2.221,1.199,2.221,3.479
	c0,4.859-5.88,12.419-10.979,18.719c1.8-4.619,5.34-12.359,8.159-16.919c0.42-0.66-0.3-1.199-0.779-0.48
	c-2.58,3.721-6.66,12.54-9.96,21.06C127.169,463.76,124.829,471.26,124.829,474.199z M136.229,460.221c0.9,0,1.68,0.779,1.68,1.68
	c0,0.479-0.18,0.96-0.48,1.26c-2.459,2.46-5.579,3.24-7.739,3.24c-0.899,0-1.62-0.12-2.04-0.36c0.36-1.2,0.721-2.46,1.2-3.6
	c0.36,0.12,0.84,0.18,1.319,0.18c1.561,0,3.48-0.6,4.801-1.92C135.269,460.4,135.749,460.221,136.229,460.221z M132.329,461.24
	c-1.02,0.48-2.22,0.6-3.18,0.36c0.48-1.38,1.08-3.12,1.5-4.021C131.609,458.181,132.27,459.92,132.329,461.24z"/>
<path d="M29.913,309.588h3.654l16.182,38.57h0.116l16.008-38.57h3.654V351h-2.553v-38.279h-0.115L51.083,351h-2.552l-15.95-38.279
	h-0.116V351h-2.552V309.588z M76.196,336.094c0-2.126,0.3-4.127,0.899-6.003c0.599-1.875,1.479-3.528,2.639-4.959
	c1.16-1.43,2.59-2.562,4.292-3.394c1.701-0.83,3.653-1.246,5.858-1.246c2.203,0,4.156,0.416,5.857,1.246
	c1.701,0.832,3.133,1.964,4.292,3.394c1.16,1.431,2.039,3.084,2.64,4.959c0.599,1.876,0.898,3.877,0.898,6.003
	c0,2.127-0.3,4.139-0.898,6.032c-0.601,1.895-1.479,3.548-2.64,4.959c-1.159,1.412-2.591,2.533-4.292,3.364
	s-3.654,1.247-5.857,1.247c-2.205,0-4.157-0.416-5.858-1.247c-1.702-0.831-3.132-1.952-4.292-3.364
	c-1.16-1.411-2.04-3.064-2.639-4.959C76.496,340.232,76.196,338.221,76.196,336.094z M78.4,336.094c0,1.779,0.251,3.49,0.754,5.133
	c0.502,1.645,1.237,3.104,2.204,4.38c0.966,1.275,2.165,2.291,3.596,3.045s3.074,1.131,4.931,1.131c1.855,0,3.498-0.377,4.93-1.131
	c1.43-0.754,2.629-1.77,3.596-3.045c0.967-1.276,1.701-2.735,2.204-4.38c0.502-1.643,0.754-3.354,0.754-5.133
	c0-1.777-0.252-3.489-0.754-5.133c-0.503-1.643-1.237-3.104-2.204-4.379s-2.166-2.291-3.596-3.045
	c-1.432-0.754-3.074-1.131-4.93-1.131c-1.856,0-3.5,0.377-4.931,1.131s-2.63,1.77-3.596,3.045c-0.967,1.275-1.702,2.736-2.204,4.379
	C78.651,332.604,78.4,334.316,78.4,336.094z M112.098,327.8h0.174c0.27-0.966,0.764-1.875,1.479-2.726
	c0.715-0.85,1.586-1.586,2.61-2.204s2.165-1.093,3.423-1.421c1.256-0.328,2.561-0.473,3.914-0.436v2.204
	c-1.16-0.153-2.484-0.038-3.973,0.349c-1.489,0.387-2.91,1.237-4.264,2.552c-0.541,0.58-1.015,1.141-1.42,1.682
	c-0.406,0.542-0.746,1.142-1.016,1.798c-0.271,0.658-0.484,1.393-0.638,2.204c-0.155,0.812-0.252,1.779-0.29,2.9V351h-2.204v-29.812
	h2.204V327.8z M125.437,323.102v-1.914h5.336v-6.147c0-1.044,0.174-1.942,0.522-2.697c0.348-0.754,0.82-1.362,1.42-1.827
	c0.6-0.464,1.296-0.812,2.089-1.043c0.792-0.232,1.633-0.349,2.522-0.349c0.657,0,1.527,0.097,2.61,0.29v1.914
	c-1.083-0.193-1.953-0.29-2.61-0.29c-1.238,0-2.271,0.28-3.103,0.841c-0.832,0.561-1.247,1.673-1.247,3.335v5.974h6.206v1.914
	h-6.206V351h-2.204v-27.898H125.437z M147.129,345.026h2.958V351h-2.958V345.026z"/>
<path d="M33.181,395.181l-9.96,21.299L16.262,407l15.959-34.318l15.839-9.54l-4.439,9.54l1.8,15.839l16.56-15.839h11.399L57.42,407
	l-15.899,9.479l9.959-21.299l-6.539,6.54H33.541L33.181,395.181z M77.52,373.762c0.84-0.601,1.86-1.08,3.18-1.08h18.779
	c0.9,0,1.74,0.24,2.16,1.08s0.3,1.68-0.12,2.579l-12.659,27.18c-0.54,1.079-1.2,1.859-2.22,2.52c-0.96,0.66-1.86,0.96-3.12,0.96
	H64.74c-0.899,0-1.92-0.18-2.16-0.96c-0.359-1.08-0.359-1.74,0.061-2.7l12.599-26.999C75.779,375.142,76.979,374.121,77.52,373.762z
	 M83.999,382.401c-0.12,0.12-0.42,0.42-0.54,0.779l-6.18,13.319c-0.12,0.24-0.3,0.42-0.18,0.721c0.24,0.42,0.42,0.3,0.66,0.3h1.56
	c0.36,0,0.601-0.12,0.78-0.36c0.24-0.18,0.479-0.359,0.54-0.66l6.239-13.319c0.12-0.359,0.36-0.6,0.181-0.899
	c-0.061-0.24-0.36-0.12-0.601-0.12h-1.5C84.6,382.161,84.18,382.281,83.999,382.401z M97.619,416.479L90.659,407l15.96-34.318
	h22.559c0.9,0,1.74,0.18,2.16,0.899c0.54,0.9,0.3,1.8-0.12,2.76l-4.56,9.72c-0.54,1.2-1.32,1.92-2.28,2.58
	c-1.2,0.9-3.06,0.96-3.06,0.96c-0.061,0,1.68,0.12,2.1,1.08c0.48,1.08,0.24,1.74-0.18,2.7l-6.3,13.619l-15.899,9.479l9.72-20.939
	c0.12-0.239,0.24-0.479,0.18-0.72c-0.12-0.24-0.42-0.24-0.66-0.24h-1.02l4.439-9.539h1.08c0.36,0,0.601,0,0.9-0.3
	c0.3-0.24,0.359-0.42,0.479-0.66l0.42-0.9c0.12-0.3,0.24-0.54,0.12-0.779c-0.06-0.24-0.359-0.24-0.6-0.24h-1.44
	c-0.359,0-0.6,0-0.899,0.12c-0.36,0.24-0.601,0.779-0.601,0.899l-5.819,12.359L97.619,416.479z M110.938,394.82
	c0,0.3-0.12,0.42-0.18,0.72L110.938,394.82z M151.318,385.041l-4.5,9.539h-9.359l-10.199,21.899l-6.9-9.479l15.96-34.318h27.419
	l-11.04,9.479h-9.359l-1.38,2.88H151.318z"/>
<path d="M34.396,77.905c-0.171,5.701-0.114,22.46,0.057,25.026c0.171,3.021,0.912,3.706,3.535,3.706h3.478v3.477
	c0,0-5.416-0.114-8.438-0.114c-3.021,0-8.437,0.114-8.437,0.114v-3.477h2.736c2.622,0,3.42-0.513,3.591-3.706
	c0.171-2.851,0.171-22.688,0-25.938c-0.114-2.109-1.197-2.964-3.135-2.964h-3.079v-3.363c3.478,0.114,10.774,0.114,14.251,0
	c2.623,6.213,8.438,18.869,12.086,26.508c3.762-7.981,9.292-20.294,11.857-26.508c3.249,0.114,10.318,0.114,13.567,0v3.363h-3.42
	c-2.052,0-3.021,0.969-3.135,3.192c-0.171,3.021-0.171,22.859,0,26.052c0.114,1.996,0.741,3.364,3.363,3.364h3.192v3.477
	c0,0-6.328-0.114-9.919-0.114c-3.592,0-9.977,0.114-9.977,0.114v-3.477h3.25c2.623,0,3.25-1.368,3.363-3.364
	c0.114-2.85,0.171-19.268,0.057-25.482c-3.876,7.981-10.489,22.518-13.454,29.473h-1.881
	C44.885,100.309,38.216,85.772,34.396,77.905z M92.48,83.036c7.582,0,12.939,4.504,12.939,14.252c0,8.95-5.357,13.853-12.939,13.853
	c-7.753,0-12.941-4.902-12.941-13.853C79.54,87.54,84.898,83.036,92.48,83.036z M92.48,108.689c3.477,0,6.1-1.653,6.1-11.401
	c0-9.577-2.623-11.801-6.156-11.801c-3.535,0-5.929,2.224-5.929,11.801C86.495,107.036,88.889,108.689,92.48,108.689z
	 M118.984,97.002v6.556c0,2.964,0.969,3.648,3.42,3.648h1.824v2.964c-0.969,0-5.072-0.171-7.924-0.171
	c-2.85,0-7.41,0.171-7.98,0.171v-2.964h1.369c2.564-0.057,3.135-0.684,3.248-3.591c0.115-2.85,0.115-10.888,0-13.339
	c-0.113-2.395-0.455-3.592-3.533-3.592h-1.084v-2.85c2.566,0,8.438,0,10.66-0.171l-0.512,5.758c1.139-4.503,3.648-6.385,7.238-6.385
	c3.592,0,5.758,2.052,5.758,5.53c0,2.793-1.539,4.447-4.104,4.447c-2.281,0-3.648-1.312-3.648-3.421c0-2.451,1.994-3.534,3.99-3.42
	c-0.627-0.456-1.539-0.798-2.908-0.798C121.037,85.373,118.984,89.192,118.984,97.002z M137.793,84.005v-1.311
	c-0.285-9.064,3.707-12.313,9.977-12.313c4.789,0,7.639,2.907,7.639,6.157c0,2.28-1.367,3.648-3.592,3.648
	c-2.051,0-3.42-1.197-3.42-3.135c0-1.938,1.312-3.192,3.705-3.079c-0.684-0.855-1.766-1.482-3.305-1.482
	c-3.137,0-4.904,1.653-4.961,7.696v3.819l4.617-0.171v2.85l-4.674-0.114c0,5.644-0.057,14.422,0.057,17.786
	c0.057,1.596,0.457,2.793,2.508,2.793h2.109v3.021c-0.969,0-4.902-0.171-7.639-0.171s-7.068,0.171-7.639,0.171v-3.021h1.996
	c1.824,0,2.564-1.197,2.621-2.793c0.115-3.307,0.115-12.143,0.059-17.786l-4.105,0.114v-2.85L137.793,84.005z"/>
<path d="M14.502,168.244c0.505-3.076,1.033-7.315,1.587-12.72c0.554-5.403,1.188-12.524,1.904-21.362l-0.439-1.367l5.64-0.195
	l9.058,28.247c2.897-7.389,5.147-13.281,6.751-17.676c1.603-4.395,2.771-7.853,3.503-10.376l5.884-0.195v2.612
	c0,4.33,0.126,9.281,0.379,14.856c0.252,5.574,0.614,11.552,1.086,17.932l-5.688,0.244c-0.081-4.98-0.22-9.814-0.415-14.502
	s-0.447-9.204-0.757-13.55c-1.888,4.688-3.698,9.347-5.432,13.978c-1.733,4.63-3.39,9.24-4.969,13.83l-3.735,0.244
	c-0.667-2.652-1.774-6.474-3.32-11.463c-1.546-4.988-3.345-10.518-5.396-16.589c-0.603,6.885-1.091,12.634-1.465,17.249
	c-0.374,4.613-0.635,8.134-0.781,10.559L14.502,168.244z M79.263,168.952c-4.313,0-7.845-1.521-10.596-4.565
	c-2.751-3.043-4.126-6.974-4.126-11.792c0-3.548,0.647-6.641,1.941-9.277s3.413-5.176,6.359-7.617
	c1.579-1.285,3.129-2.242,4.651-2.868c1.521-0.627,3.056-0.94,4.602-0.94c1.611,0,3.17,0.265,4.676,0.794
	c1.505,0.528,2.836,1.281,3.992,2.258c1.969,1.693,3.475,3.752,4.516,6.177c1.042,2.426,1.562,5.07,1.562,7.935
	c0,2.719-0.512,5.277-1.537,7.678c-1.025,2.401-2.508,4.505-4.443,6.312c-2.264,2.116-4.298,3.63-6.104,4.541
	S81.118,168.952,79.263,168.952z M82.852,164.338c1.66,0,3.129-0.228,4.407-0.684c1.277-0.455,2.128-1.041,2.551-1.758
	c0.7-1.204,1.233-2.584,1.6-4.139c0.366-1.554,0.549-3.193,0.549-4.919c0-4.932-1.225-8.887-3.674-11.865
	c-2.45-2.979-5.693-4.468-9.729-4.468c-1.611,0-3.068,0.229-4.37,0.684c-1.302,0.456-2.181,1.025-2.637,1.709
	c-0.798,1.205-1.437,2.734-1.916,4.59c-0.48,1.855-0.721,3.744-0.721,5.664c0,4.362,1.322,7.983,3.968,10.864
	c2.645,2.881,5.937,4.321,9.875,4.321H82.852z M117.145,167.976l-5.981,0.269c0.098-2.295,0.171-4.834,0.22-7.617
	s0.073-6.16,0.073-10.132c0-3.955-0.024-7.315-0.073-10.083c-0.049-2.767-0.122-5.306-0.22-7.617h1.196
	c1.448,0,3.121-0.032,5.018-0.098c1.896-0.064,3.071-0.098,3.527-0.098c3.58,0,6.327,0.712,8.24,2.137
	c1.912,1.424,2.868,3.463,2.868,6.115c0,2.377-0.814,4.415-2.441,6.115c-1.628,1.701-4.021,3.016-7.178,3.943
	c2.457,3.402,4.646,6.359,6.567,8.875c1.92,2.514,3.67,4.684,5.249,6.506l-5.054,2.661c-1.303-1.839-3.048-4.252-5.236-7.239
	c-2.189-2.986-4.562-6.172-7.117-9.558c0,2.539,0.028,5.131,0.086,7.776C116.945,162.576,117.03,165.258,117.145,167.976z
	 M116.803,151.008l4.053-2.515c0.423,0.195,0.862,0.358,1.318,0.488c0.455,0.131,0.936,0.236,1.44,0.317
	c1.009-0.732,1.778-1.623,2.308-2.674c0.528-1.049,0.793-2.209,0.793-3.479c0-2.278-0.688-4.122-2.062-5.529
	c-1.376-1.408-3.154-2.112-5.335-2.112c-0.473,0-0.915,0.017-1.331,0.049c-0.414,0.033-0.81,0.082-1.184,0.146V151.008z
	 M147.31,168.244c0.098-2.295,0.171-4.834,0.22-7.617s0.073-6.16,0.073-10.132c0-3.955-0.024-7.315-0.073-10.083
	c-0.049-2.767-0.122-5.306-0.22-7.617c4.053,0,7.544-0.016,10.474-0.049c2.93-0.032,5.501-0.081,7.715-0.146l-1.587,3.54
	c-0.603-0.064-1.286-0.113-2.051-0.146c-0.766-0.032-2.019-0.049-3.76-0.049h-4.932c-0.049,1.367-0.09,2.966-0.122,4.798
	c-0.033,1.83-0.065,4.398-0.098,7.702h2.344c1.741,0,3.397-0.013,4.969-0.036c1.57-0.025,3.063-0.053,4.479-0.086l-1.636,3.369
	c-0.847-0.049-1.62-0.086-2.319-0.109c-0.7-0.025-1.343-0.037-1.929-0.037h-5.908c0,2.49,0.028,5.074,0.086,7.752
	c0.057,2.677,0.142,5.57,0.256,8.679L147.31,168.244z"/>
<path d="M51.186,228.917c0,0.969-0.684,1.368-1.425,1.368c-0.685,0-1.368-0.399-1.368-1.368v-33.121l-9.92,21.72
	c-0.284,0.684-0.912,1.026-1.539,1.026c-0.513,0-1.254-0.343-1.539-1.026l-9.919-21.72v33.121c0,0.969-0.685,1.368-1.368,1.368
	c-0.741,0-1.425-0.399-1.425-1.368v-37.226c0-0.741,0.684-1.425,1.425-1.425h1.026c0.398,0,1.083,0.456,1.254,0.855l10.546,23.43
	l10.547-23.43c0.171-0.399,0.854-0.855,1.254-0.855h1.026c0.741,0,1.425,0.684,1.425,1.425V228.917z M86.98,219.91
	c0,5.814-4.675,10.375-10.433,10.375h-0.57c-5.757,0-10.432-4.561-10.432-10.375v-19.212c0-5.814,4.675-10.432,10.432-10.432h0.57
	c5.758,0,10.433,4.618,10.433,10.432V219.91z M84.187,219.91v-19.212c0-4.275-3.363-7.639-7.639-7.639h-0.57
	c-4.275,0-7.639,3.363-7.639,7.639v19.212c0,4.275,3.363,7.639,7.639,7.639h0.57C80.823,227.549,84.187,224.186,84.187,219.91z
	 M123.175,201.61c0,5.188-3.534,9.406-8.494,10.318l7.811,16.361c0.113,0.228,0.171,0.456,0.171,0.684
	c0,0.855-0.741,1.312-1.482,1.312c-0.513,0-0.912-0.229-1.197-0.741l-8.323-17.501h-7.468v16.874c0,0.969-0.684,1.368-1.425,1.368
	c-0.684,0-1.368-0.399-1.368-1.368v-36.884c0-0.741,0.627-1.425,1.368-1.425h9.977c5.758,0,10.432,4.674,10.432,10.432V201.61z
	 M120.382,201.61v-0.57c0-4.275-3.363-7.639-7.639-7.639h-8.552v15.849h8.552C117.019,209.25,120.382,206,120.382,201.61z
	 M157.317,191.977c0,0.684-0.455,1.425-1.425,1.425h-17.216v14.765h12.199c0.969,0,1.426,0.684,1.426,1.425
	s-0.457,1.425-1.426,1.425h-12.199v17.9c0,0.969-0.685,1.368-1.368,1.368c-0.685,0-1.425-0.399-1.425-1.368v-36.884
	c0-0.741,0.569-1.425,1.425-1.425h18.584C156.862,190.608,157.317,191.292,157.317,191.977z"/>
<path d="M59.519,548.682V592H53.04v-33.839h-0.12L46.2,592h-3.6l-6.72-33.839h-0.12V592h-6.48v-43.318h9.78l5.28,25.319h0.12
	l5.28-25.319H59.519z M67.56,559.182c0-6.12,3.6-11.1,11.4-11.1c7.799,0,11.399,4.979,11.399,11.1V581.5
	c0,6.12-3.6,11.1-11.399,11.1c-7.8,0-11.4-4.979-11.4-11.1V559.182z M75,581.32c0,3.24,0.96,4.8,3.96,4.8c3,0,3.959-1.56,3.959-4.8
	v-21.959c0-3.24-0.96-4.8-3.959-4.8c-3,0-3.96,1.56-3.96,4.8V581.32z M106.2,592h-7.44v-43.318h10.44
	c8.339,0,12.599,3.54,12.599,12.779c0,6.96-2.7,9.78-5.22,10.92l6.3,19.619h-7.56l-5.279-17.939c-0.961,0.12-2.521,0.18-3.84,0.18
	V592z M106.2,568.121h2.64c4.02,0,5.52-1.5,5.52-6.66s-1.5-6.659-5.52-6.659h-2.64V568.121z M129.96,592v-43.318h20.76v6.48h-13.32
	v11.159h9.96v6.479h-9.96V592H129.96z"/>
<path d="M15.7,493.197V525.8H20.9v1.2H9.1v-1.2h5.2v-32.603H9.1v-1.199h7.05c0.8,0,1,0.15,1.25,0.85l12.751,32.902h0.35
	l12.75-32.902c0.25-0.699,0.45-0.85,1.25-0.85h7.051v1.199h-5.201V525.8h5.201v1.2H39.751v-1.2h5.2v-32.603h-0.4L31.751,526
	c-0.35,0.85-0.55,1-1.25,1h-0.35c-0.7,0-0.9-0.15-1.25-1L16.1,493.197H15.7z M83.35,491.998c3,0,4.25,0.449,5.2,1.4
	c1.65,1.649,2.4,4.15,2.4,16.101s-0.75,14.451-2.4,16.101c-0.95,0.95-2.2,1.4-5.2,1.4H72.399c-3,0-4.25-0.45-5.2-1.4
	c-1.65-1.649-2.4-4.15-2.4-16.101s0.75-14.451,2.4-16.101c0.95-0.951,2.2-1.4,5.2-1.4H83.35z M68.149,524.649
	c0.7,0.7,1.55,1.15,4.25,1.15H83.35c2.7,0,3.55-0.45,4.25-1.15c1.2-1.199,1.95-3.45,1.95-15.15s-0.75-13.951-1.95-15.151
	c-0.7-0.699-1.55-1.15-4.25-1.15H72.399c-2.7,0-3.55,0.451-4.25,1.15c-1.2,1.2-1.95,3.451-1.95,15.151S66.949,523.45,68.149,524.649
	z M130.5,525.8h5.701v1.2H130.7c-0.601,0-1-0.1-1.25-0.35c-0.45-0.45-0.55-0.95-0.8-8.201c-0.15-4.5-0.601-5.7-1.4-6.5
	c-0.85-0.851-2.051-1.3-4.35-1.3h-12.102v15.15h5.551v1.2h-12.15v-1.2h5.199v-32.603h-5.199v-1.199h18.551c2.65,0,4.15,0.35,5.3,1.5
	c1.351,1.35,2.2,2.9,2.2,7.801c0,5.95-1.8,7.75-4.5,8.65v0.1c3.051,0.65,4.051,2,4.301,8.351
	C130.301,524.149,130.35,524.8,130.5,525.8z M122.6,509.449c2.301,0,3.5-0.551,4.4-1.45c0.8-0.8,1.85-2.2,1.85-6.7
	c0-4.601-0.949-6.051-1.8-6.9c-0.899-0.9-2.25-1.201-4.3-1.201h-11.951v16.252H122.6z M145.248,493.197v-1.199H170.9v9.801h-1.351
	v-8.602h-17.701v15.451h12.351v1.251h-12.351v15.9h5.55v1.2h-12.15v-1.2h5.201v-32.603H145.248z"/>
</svg>
