<svg width="256" height="64" fill="none" xmlns="http://www.w3.org/2000/svg">
  <g clip-path="url(#clip0)" fill="#fff">
    <path d="M102.764 54.7216c0 1.9607-1.634 3.3767-2.615 3.3767h-6.1017v4.684h-1.9614V51.2358h7.8453c1.4168 0 2.8328 1.634 2.8328 3.4858zm-1.961 0c0-.6536-.654-1.525-1.3076-1.525h-5.5571v2.8321h5.775c.5447.1089 1.0897-.6536 1.0897-1.3071zM122.704 56.6822c0 4.1392-3.378 6.3178-6.647 6.3178-3.378 0-6.647-2.1786-6.647-6.3178 0-3.4858 3.378-5.7733 6.647-5.7733 3.16 0 6.647 2.2875 6.647 5.7733zm-2.071 0c0-1.9608-2.179-3.5947-4.576-3.5947-2.506 0-4.577 1.6339-4.577 3.5947 0 2.7232 1.744 4.2482 4.577 4.2482 2.942.1089 4.576-1.7429 4.576-4.2482zM140.901 58.9697c.109 1.7429-1.526 4.0304-5.34 4.0304-4.031 0-6.973-2.5054-6.973-2.5054l1.307-1.525c1.417 1.1982 3.487 2.0696 5.449 2.0696 1.307 0 3.377-.5446 3.377-1.7428 0-.5447-.218-1.0893-.871-1.1982l-5.666-.8715c-1.635-.2178-2.942-1.525-2.942-3.05 0-2.5053 3.269-3.3768 5.775-3.3768 1.961.109 3.704.7625 5.23 1.9608l-1.417 1.416c-1.198-.7625-3.051-1.525-4.685-1.525-1.199 0-2.724.6536-2.724 1.4161-.109.7625.872 1.1982 1.743 1.3072l3.923.4357c1.743.3268 3.705 1.1982 3.814 3.1589zM158.879 53.0876h-4.903v9.5857h-1.961v-9.5857h-4.904v-1.8518h11.768v1.8518zM55.9111 14.9625c0-5.44644-3.3779-8.27859-6.2109-9.69466l-.5448-.21785.5448-.32679c.5448-.32679 1.4165-.65357 1.9613-.87143.9807-.21786.9807-.21786.5448-.32678h-.8717c-.5448 0-2.3971 0-3.8136.7625h-.218c-2.1792-.65358-4.2495-.98036-5.9929-.98036h-.8717c-9.5887.7625-17.216 5.88214-22.8821 15.24997-3.9226 6.5357-4.6853 13.725-3.9226 16.4482.7627 3.05 2.833 4.575 6.1019 4.575.4358 0 .8717 0 1.3075-.1089 5.775-.6536 9.9156-6.9714 12.8576-11.5464l.2179-.3268c2.2882.9804 6.1019 1.3071 9.3708.7625.2179 0 .3269-.1089.4358-.1089.2179 0 .3269-.109.5448-.109 5.9929-1.525 11.4411-6.5357 11.4411-13.1803zm-23.8628 8.1696l-.2179.3268-.2179-.1089c-1.3076-.7625-2.2882-2.9411-2.3972-3.05-.109-.2179-.2179-.4357-.2179-.3268V20.3c0 2.0696.6538 3.9214 1.7434 4.7928l.2179.2179s-6.3198 10.675-9.6976 11.5464c-.4359.109-.9807.2179-1.4165.2179-1.0897 0-2.8331-.4357-3.051-3.4857 0-.2179-.8717-5.7732 4.1406-13.834 5.3391-8.8232 10.3514-12.85353 17.5429-14.05174 2.5061-.32679 4.1406-.21786 6.7557.32678l-.218.21786-.4358.43571C39.2398 10.8232 35.2082 17.25 32.0483 23.1321zm19.8312-8.2785c-.9807 5.3375-4.3585 9.2589-8.717 10.7839h-.109c-1.0896.3268-3.3778.5446-3.4868.5446-1.6344 0-3.0509-.3268-4.3585-.7625 2.942-5.2285 7.3005-12.8535 12.3128-18.29997l.2179-.21786.2179.10893c2.3972 1.30714 4.1406 4.1393 4.1406 6.8625-.109.2179-.109.5446-.2179.9804zM230.251 26.1822c-2.724 4.575-6.102 7.8428-10.57 8.9321 1.308-1.416 1.744-5.7732 1.853-8.0607.109-.8714.436-5.2286 2.07-5.6643.327-.1089.436-.5446.327-.8714-.327-.9804-1.417-.9804-2.397-.9804-4.359 0-7.083 2.8322-10.243 5.7733l-.327.3267-.108.109-1.962 2.0696c-1.416 1.4161-3.814 3.3768-7.627 5.7732-1.962 1.1982-3.378 1.1982-3.705 1.525 1.526-1.416 1.744-4.7928 1.852-6.5357.327-3.05.109-6.3178 1.635-6.9714.218-.1089.327-.6536.218-.9804-.218-.6535-.872-.9803-1.744-.9803-4.031.1089-7.3 2.1785-10.351 5.5553l-.436.5447c-.109.1089-.218.2178-.327.3268-2.615 2.6142-8.717 9.5857-14.819 9.5857-2.288 0-5.23-.109-5.23-2.8322 7.083-2.2875 10.352-7.0803 10.352-9.8035 0-2.2875-1.526-3.9215-3.923-4.0304-1.199-.1089-2.288.2179-3.269.6536-2.724 1.0893-6.647 5.7732-6.211 11.8732v.7625c-2.179 1.4161-4.903 2.9411-7.627 3.05-3.596.2178-5.557-.6536-5.775-4.4661 0-.5446-.109-.7625.109-1.0893 6.538-6.5357 11.877-14.2696 13.729-18.9535.872-2.28754 1.635-6.42683-1.961-7.0804-4.795-.87143-10.461 5.99107-13.512 16.2304-.762 2.5053-1.634 5.8821-1.743 9.041-2.288 2.0697-5.121 4.4661-7.845 5.8822 0 0-1.635.6535-3.051.6535-3.923 0-2.724-3.7035-2.724-3.7035.654-2.5054 4.14-5.6643 5.339-6.1 1.416-.5447 1.525-2.2875-.109-2.5054-1.852-.1089-5.23 1.0893-7.845-1.8518.109-.3268.218-.6535.218-.9803 0-1.3072-1.09-2.3965-2.289-2.2875-1.307 0-2.288 1.0893-2.288 2.3964 0 .7625.436 1.525.981 1.8518-.545 1.4161-1.417 3.9214-2.724 5.5553-2.833 3.5947-7.845 7.625-13.403 7.734-1.961 0-5.121-.109-5.775-2.1786 6.756-2.2875 11.55-7.4071 11.441-10.2393 0-2.2875-1.525-3.9214-4.031-4.0303-5.775-.2179-10.787 6.6446-10.678 12.8535V32.5c-4.032 2.1786-7.8457 2.2875-10.5697 2.1786 2.2882-2.1786 4.0316-6.5357 4.0316-9.5857 0-2.3964-1.0897-4.1393-2.8331-4.575-1.5254-.4357-3.0509-.3268-4.6853.6536-.8717.5446-1.6345 1.3071-2.0703 1.6339.1089-.3268.8717-1.8518.4358-1.8518-.6537 0-2.0703-.1089-3.2688-.1089-.4359 0-1.0897-.1089-.8717.3268.5448 1.0893.5448 1.8518.3269 2.3964-2.8331 3.3768-11.4411 11.9821-16.0175 11.5464-1.7434-.1089-1.8524-.8714-1.7434-2.1785.109-1.1983 1.6344-3.8125 2.1792-4.7929.6538-1.0893 1.3076-2.2875 1.9614-3.3768.3269-.5446.4358-.8714.7627-1.4161.8717-1.416 1.8524-1.416 1.8524-1.9607 0-.1089-.218-.1089-.218-.1089l-3.3778-.2179c-.6538 0-.9807.6536-1.3075 1.4161-.6538-1.4161-2.0703-2.1786-3.4868-2.1786-5.993-.1089-12.5307 5.7733-12.7486 11.9822-.109 2.9411 2.1792 5.0107 5.4481 5.0107 2.0703 0 4.6854-1.0893 5.884-2.8321l.1089.6535c.5448 1.525 2.3972 2.1786 3.9227 2.2875 5.3391.3268 9.4797-3.7035 12.8575-6.6446-3.0509 5.3375-7.1915 12.6357-10.1335 17.2107l4.2495-.9804 7.0826-11.8732c.9807 1.9607 2.6151 2.5054 4.1406 2.6143 2.1792.1089 3.9226-.4357 5.1212-1.1982 6.2108.8714 10.6779-.3268 13.8379-2.0696 1.199 2.1785 3.923 3.05 6.429 3.2678 1.852.1089 3.596 0 5.339-.4357.109 0 .327-.1089.872-.2179 3.814-1.0892 7.518-3.4857 10.678-7.516.109-.109 1.635-2.0697 2.288-3.159.872-1.3071 1.417-2.3964 1.853-3.2678 1.525 1.4161 4.14 1.6339 4.903 1.7428-.327 0-9.589 7.9518-4.14 11.8733.326.3267 4.14 2.0696 7.518.2178.545-.3268 5.666-2.9411 8.172-5.4464.218 3.1589 2.506 5.9911 7.192 5.9911 3.268 0 7.082-1.4161 10.024-3.2679 1.417 2.6143 4.794 3.3768 7.519 3.3768 5.121 0 9.37-3.4857 12.203-5.8822.109 4.2483 4.141 5.9911 8.717 5.7733 4.904-.2179 9.589-2.3965 13.294-5.9911-.109 3.8125 2.724 6.1 7.409 5.9911 8.499-.109 13.511-5.0108 16.235-8.7143l-.871-2.6143zM62.7758 32.1733c-1.8524 2.8321-7.7363 4.2482-7.4095-.5447.218-3.5946 5.4482-8.9321 9.1529-8.8232.6538 0 1.3075.2179 1.8523.6536.7628.5446.7628 1.0893.6538 1.525l-4.2495 7.1893zm22.991 3.4857c-2.0703 0-3.1599-1.9607-2.833-3.159 0-.1089 2.3972-4.6839 3.3778-6.1 1.5255-2.2875 4.0316-3.5946 5.993-3.3767 1.6344.2178 1.7434 1.1982 1.7434 2.6142 0 3.5947-3.7048 10.0215-8.2812 10.0215zm21.3562-6.4268c.436-2.3964 2.507-5.5554 4.795-6.7536.545-.3268 1.307-.6536 2.288-.6536.981 0 1.525.5447 1.634 1.525 0 1.0893-1.198 2.3965-1.852 3.159-2.724 3.05-5.448 4.0303-7.083 4.6839 0 0 .001-.5446.218-1.9607zM158.88 9.51611c1.853-2.50536 3.269-3.92143 4.686-3.37678.545.21785.654.87142.545 1.525-.763 4.79287-7.737 16.44817-11.986 19.06247-.327.2179.872-8.9321 6.755-17.21069zm9.262 19.71609c.327-3.05 1.199-6.2089 3.814-7.4072.654-.3267 1.308-.7625 2.397-.6535.981.1089 1.526.7625 1.526 1.7428 0 1.8518-1.635 3.5947-2.398 4.2482-2.288 2.0697-4.14 2.9411-5.23 3.2679l-.109-1.1982zM192.55 35.55c-2.833 0-4.141-1.6339-4.468-3.7035.327 0 .763-.109 1.09-.4357 1.417-1.4161.218-2.8322.218-2.9411.654-.7625 1.961-2.3964 1.961-2.3964 2.397-2.3965 4.686-4.1393 6.102-4.0304-1.743 3.9214-.109 13.2893-4.903 13.5071zm21.465.2179c-2.724 0-3.813-1.525-3.922-3.4857.436.1089.98 0 1.416-.4357 1.526-1.525.109-3.05-.109-3.159 2.615-2.941 5.666-5.8821 7.955-6.6446-2.18 3.5946-.327 13.725-5.34 13.725zM241.365 27.3803c-.872.8714-2.07 1.4161-3.269 1.4161-1.199 0-2.397-.4357-3.269-1.4161-.872-.8714-1.307-2.0696-1.307-3.3768 0-1.3071.435-2.3964 1.416-3.2678.872-.8715 1.961-1.4161 3.269-1.4161 1.307 0 2.397.4357 3.269 1.4161.871.9803 1.416 1.9607 1.416 3.2678-.109 1.3072-.545 2.5054-1.525 3.3768zm-6.102-6.2089c-.763.7625-1.199 1.7428-1.199 2.8321 0 1.0893.436 2.0697 1.199 2.8322.763.7625 1.743 1.1982 2.833 1.1982s2.07-.4357 2.833-1.1982c.763-.7625 1.199-1.7429 1.199-2.8322s-.436-2.0696-1.199-2.8321c-.763-.7625-1.743-1.1982-2.833-1.1982s-2.07.4357-2.833 1.1982zm2.724.3268c.654 0 1.09.1089 1.416.2178.545.2179.763.6536.763 1.3072 0 .4357-.218.7625-.545.9803-.218.1089-.435.2179-.762.2179.436.1089.653.2178.871.5446.218.2179.327.5447.327.7625v.7625c0 .1089.109.3268.109.3268h-.871v-.6536c0-.5446-.109-.9803-.436-1.1982-.218-.1089-.545-.2178-.981-.2178h-.763v2.0696h-.871v-5.1196h1.743zm.981.7625c-.327-.3268-1.853-.2179-1.853-.2179v1.8518h.872c.436 0 1.416-.1089 1.416-.8714-.108-.3268-.217-.5447-.435-.7625z"/>
  </g>
  <defs>
    <clipPath id="clip0">
      <path fill="#fff" transform="translate(12 2)" d="M0 0h231v61H0z"/>
    </clipPath>
  </defs>
</svg>
