<svg width="407" height="108" viewBox="0 0 407 108" fill="none" xmlns="http://www.w3.org/2000/svg">
<g clip-path="url(#clip0)">
<path d="M159.922 92.9188C159.922 96.3744 157.042 98.8702 155.314 98.8702H144.563V107.125H141.107V86.7754H154.93C157.426 86.7754 159.922 89.6551 159.922 92.9188ZM156.466 92.9188C156.466 91.7669 155.314 90.231 154.162 90.231H144.371V95.2226H154.546C155.506 95.4145 156.466 94.0707 156.466 92.9188Z" fill="white"/>
<path d="M195.055 96.3745C195.055 103.67 189.103 107.509 183.344 107.509C177.392 107.509 171.633 103.67 171.633 96.3745C171.633 90.2311 177.584 86.1995 183.344 86.1995C188.911 86.1995 195.055 90.2311 195.055 96.3745ZM191.407 96.3745C191.407 92.9188 187.567 90.0391 183.344 90.0391C178.928 90.0391 175.28 92.9188 175.28 96.3745C175.28 101.174 178.352 103.862 183.344 103.862C188.527 104.054 191.407 100.79 191.407 96.3745Z" fill="white"/>
<path d="M227.116 100.406C227.308 103.478 224.428 107.509 217.709 107.509C210.605 107.509 205.422 103.094 205.422 103.094L207.726 100.406C210.221 102.518 213.869 104.054 217.325 104.054C219.628 104.054 223.276 103.094 223.276 100.982C223.276 100.022 222.892 99.0623 221.74 98.8703L211.757 97.3345C208.878 96.9505 206.574 94.6467 206.574 91.959C206.574 87.5434 212.333 86.0076 216.749 86.0076C220.204 86.1995 223.276 87.3514 225.964 89.4632L223.468 91.959C221.356 90.6151 218.093 89.2712 215.213 89.2712C213.101 89.2712 210.413 90.4231 210.413 91.767C210.221 93.1109 211.949 93.8788 213.485 94.0708L220.396 94.8387C223.468 95.4146 226.924 96.9505 227.116 100.406Z" fill="white"/>
<path d="M258.793 90.0391H250.153V106.933H246.698V90.0391H238.059V86.7754H258.793V90.0391Z" fill="white"/>
<path d="M77.3689 22.8457C77.3689 13.2466 71.4175 8.25513 66.426 5.75937L65.466 5.37541L66.426 4.79947C67.3859 4.22352 68.9217 3.64758 69.8816 3.26362C71.6095 2.87965 71.6095 2.87965 70.8415 2.68767C70.6495 2.68767 69.8816 2.68767 69.3057 2.68767C68.3458 2.68767 65.0821 2.68767 62.5863 4.03154H62.3944H62.2024C58.3628 2.87965 54.7151 2.30371 51.6434 2.30371C51.0675 2.30371 50.6835 2.30371 50.1076 2.30371C33.2132 3.64758 19.7745 12.6707 9.79152 29.1811C2.8802 40.6999 1.53633 53.3707 2.8802 58.1702C4.22407 63.5457 7.87171 66.2334 13.6311 66.2334C14.3991 66.2334 15.167 66.2334 15.9349 66.0414C26.1099 64.8896 33.4052 53.7546 38.5887 45.6914L38.9727 45.1155C43.0043 46.8433 49.7236 47.4193 55.483 46.4594C55.867 46.4594 56.059 46.2674 56.251 46.2674C56.6349 46.2674 56.8269 46.0754 57.2109 46.0754C67.7698 43.3877 77.3689 34.5565 77.3689 22.8457ZM35.325 37.2443L34.9411 37.8202L34.5571 37.6282C32.2533 36.2844 30.5255 32.4447 30.3335 32.2528C30.1415 31.8688 29.9495 31.4848 29.9495 31.6768C29.9495 31.8688 29.9495 32.0608 29.9495 32.2528C29.9495 35.9004 31.1014 39.1641 33.0212 40.6999L33.4052 41.0839C33.4052 41.0839 22.2703 59.898 16.3189 61.4339C15.551 61.6259 14.591 61.8179 13.8231 61.8179C11.9033 61.8179 8.83162 61.0499 8.44765 55.6745C8.44765 55.2905 6.9118 45.4995 15.7429 31.2929C25.15 15.7424 33.9811 8.63909 46.6519 6.5273C51.0675 5.95135 53.9472 6.14333 58.5547 7.10324L58.1708 7.4872L57.4028 8.25513C47.9958 15.5504 40.8925 26.8773 35.325 37.2443ZM70.2656 22.6537C68.5378 32.0608 62.5863 38.9721 54.9071 41.6598H54.7151C52.7953 42.2358 48.7637 42.6197 48.5717 42.6197C45.692 42.6197 43.1962 42.0438 40.8925 41.2759C46.076 32.0608 53.7552 18.6221 62.5863 9.02305L62.9703 8.63909L63.3543 8.83107C67.5778 11.1348 70.6495 16.1264 70.6495 20.9259C70.4576 21.3098 70.4576 21.8858 70.2656 22.6537Z" fill="white"/>
<path d="M384.538 42.6197C379.739 50.683 373.787 56.4424 365.916 58.3622C368.22 55.8664 368.988 48.1872 369.18 44.1556C369.372 42.6197 369.948 34.9405 372.827 34.1726C373.403 33.9806 373.595 33.2127 373.403 32.6367C372.827 30.9089 370.908 30.9089 369.18 30.9089C361.501 30.9089 356.701 35.9004 351.134 41.0839L350.558 41.6598C350.558 41.6598 350.558 41.6598 350.366 41.8518L346.91 45.4995C344.414 47.9952 340.191 51.4509 333.471 55.6745C330.016 57.7863 327.52 57.7863 326.944 58.3622C329.632 55.8664 330.016 49.915 330.208 46.8433C330.784 41.4679 330.4 35.7084 333.087 34.5565C333.471 34.3646 333.663 33.4046 333.471 32.8287C333.087 31.6768 331.935 31.1009 330.4 31.1009C323.296 31.2929 317.537 34.9405 312.161 40.8919L311.393 41.8518C311.201 42.0438 311.01 42.2358 310.818 42.4278C306.21 47.0353 295.459 59.3221 284.708 59.3221C280.676 59.3221 275.493 59.1301 275.493 54.3306C287.972 50.299 293.731 41.8518 293.731 37.0523C293.731 33.0207 291.043 30.141 286.82 29.949C284.708 29.757 282.788 30.333 281.06 31.1009C276.261 33.0207 269.35 41.2759 270.118 52.0268C270.118 52.4108 270.118 53.1787 270.118 53.3707C266.278 55.8664 261.478 58.5542 256.679 58.7462C250.343 59.1301 246.888 57.5943 246.504 50.8749C246.504 49.915 246.312 49.5311 246.696 48.9551C258.215 37.4363 267.622 23.8056 270.885 15.5504C272.421 11.5188 273.765 4.22351 267.43 3.07163C258.983 1.53578 249 13.6306 243.624 31.6768C242.28 36.0924 240.744 42.0438 240.552 47.6113C236.521 51.2589 231.529 55.4825 226.73 57.9782C226.73 57.9782 223.85 59.1301 221.354 59.1301C214.443 59.1301 216.555 52.6028 216.555 52.6028C217.707 48.1872 223.85 42.6197 225.962 41.8518C228.458 40.8919 228.65 37.8202 225.77 37.4363C222.506 37.2443 216.555 39.3561 211.947 34.1726C212.139 33.5966 212.331 33.0207 212.331 32.4447C212.331 30.141 210.411 28.2212 208.3 28.4131C205.996 28.4131 204.268 30.3329 204.268 32.6367C204.268 33.9806 205.036 35.3245 205.996 35.9004C205.036 38.3962 203.5 42.8117 201.196 45.6914C196.205 52.0268 187.374 59.1301 177.583 59.3221C174.127 59.3221 168.56 59.1301 167.408 55.4825C179.31 51.4509 187.758 42.4278 187.566 37.4363C187.566 33.4046 184.878 30.5249 180.462 30.3329C170.287 29.949 161.456 42.0438 161.648 52.9867C161.648 53.3707 161.648 53.5627 161.648 53.7547C154.545 57.5943 147.826 57.7863 143.026 57.5943C147.058 53.7547 150.129 46.0754 150.129 40.6999C150.129 36.4763 148.21 33.4046 145.138 32.6367C142.45 31.8688 139.762 32.0608 136.883 33.7886C135.347 34.7485 134.003 36.0924 133.235 36.6683C133.427 36.0924 134.771 33.4046 134.003 33.4046C132.851 33.4046 130.355 33.2127 128.243 33.2127C127.476 33.2127 126.324 33.0207 126.708 33.7886C127.668 35.7084 127.668 37.0523 127.284 38.0122C122.292 43.9636 107.126 59.1301 99.0624 58.3622C95.9907 58.1702 95.7987 56.8263 95.9907 54.5226C96.1826 52.4108 98.8704 47.8032 99.8303 46.0754C100.982 44.1556 102.134 42.0438 103.286 40.124C103.862 39.1641 104.054 38.5881 104.63 37.6282C106.166 35.1325 107.893 35.1325 107.893 34.1726C107.893 33.9806 107.51 33.9806 107.51 33.9806L101.558 33.5966C100.406 33.5966 99.8303 34.7485 99.2543 36.0924C98.1025 33.5966 95.6067 32.2528 93.1109 32.2528C82.552 32.0608 71.0331 42.4278 70.6492 53.3707C70.4572 58.5542 74.4888 62.2018 80.2482 62.2018C83.8959 62.2018 88.5034 60.282 90.6152 57.2103L90.8072 58.3622C91.7671 61.0499 95.0308 62.2018 97.7185 62.3938C107.126 62.9697 114.421 55.8664 120.372 50.6829C114.997 60.09 107.702 72.9528 102.518 81.016L110.005 79.2881L122.484 58.3622C124.212 61.8179 127.092 62.7778 129.779 62.9697C133.619 63.1617 136.691 62.2018 138.802 60.858C149.745 62.3938 157.617 60.282 163.184 57.2103C165.296 61.0499 170.095 62.5858 174.511 62.9697C177.775 63.1617 180.846 62.9697 183.918 62.2018C184.11 62.2018 184.494 62.0098 185.454 61.8179C192.173 59.898 198.701 55.6745 204.268 48.5712C204.46 48.3792 207.148 44.9235 208.3 43.0037C209.835 40.6999 210.795 38.7801 211.563 37.2443C214.251 39.74 218.859 40.124 220.202 40.316C219.626 40.316 203.308 54.3306 212.907 61.2419C213.483 61.8179 220.202 64.8896 226.154 61.6259C227.114 61.0499 236.137 56.4424 240.552 52.0268C240.936 57.5943 244.968 62.5858 253.223 62.5858C258.983 62.5858 265.702 60.09 270.885 56.8263C273.381 61.4339 279.333 62.7778 284.132 62.7778C293.155 62.7778 300.643 56.6344 305.634 52.4108C305.826 59.898 312.929 62.9697 320.993 62.5858C329.632 62.2018 337.887 58.3622 344.414 52.0268C344.222 58.7462 349.214 62.7778 357.469 62.5858C372.443 62.3938 381.275 53.7547 386.074 47.2273L384.538 42.6197ZM89.4633 53.1787C86.1996 58.1702 75.8326 60.666 76.4086 52.2188C76.7925 45.8834 86.0076 36.4763 92.535 36.6683C93.6869 36.6683 94.8388 37.0523 95.7987 37.8202C97.1426 38.7801 97.1425 39.74 96.9506 40.5079L89.4633 53.1787ZM129.971 59.3221C126.324 59.3221 124.404 55.8664 124.98 53.7547C124.98 53.5627 129.203 45.4995 130.931 43.0037C133.619 38.9721 138.035 36.6683 141.49 37.0523C144.37 37.4362 144.562 39.1641 144.562 41.6598C144.562 47.9952 138.035 59.3221 129.971 59.3221ZM167.6 47.9952C168.368 43.7716 172.015 38.2042 176.047 36.0924C177.007 35.5164 178.351 34.9405 180.078 34.9405C181.806 34.9405 182.766 35.9004 182.958 37.6282C182.958 39.548 180.846 41.8518 179.694 43.1957C174.895 48.5712 170.095 50.299 167.216 51.4509C167.216 51.4509 167.216 50.491 167.6 47.9952ZM258.791 13.2466C262.054 8.83106 264.55 6.33531 267.046 7.29521C268.006 7.67917 268.198 8.83106 268.006 9.98295C266.662 18.4301 254.375 38.9721 246.888 43.5797C246.312 43.9636 248.424 27.8372 258.791 13.2466ZM275.109 47.9952C275.685 42.6197 277.221 37.0523 281.828 34.9405C282.98 34.3646 284.132 33.5966 286.052 33.7886C287.78 33.9806 288.74 35.1325 288.74 36.8603C288.74 40.124 285.86 43.1957 284.516 44.3476C280.485 47.9952 277.221 49.5311 275.301 50.107L275.109 47.9952ZM318.113 59.1301C313.121 59.1301 310.818 56.2504 310.242 52.6028C310.818 52.6028 311.585 52.4108 312.161 51.8348C314.657 49.3391 312.545 46.8433 312.545 46.6513C313.697 45.3075 316.001 42.4278 316.001 42.4278C320.225 38.2042 324.256 35.1325 326.752 35.3245C323.68 42.2358 326.56 58.7462 318.113 59.1301ZM355.933 59.5141C351.134 59.5141 349.214 56.8263 349.022 53.3707C349.79 53.5627 350.75 53.3707 351.518 52.6028C354.205 49.915 351.71 47.2273 351.326 47.0353C355.933 41.8518 361.309 36.6683 365.34 35.3245C361.501 41.6598 364.764 59.5141 355.933 59.5141Z" fill="white"/>
<path d="M404.121 44.7315C402.586 46.2674 400.474 47.2273 398.362 47.2273C396.25 47.2273 394.138 46.4593 392.603 44.7315C391.067 43.1957 390.299 41.0839 390.299 38.7801C390.299 36.4763 391.067 34.5565 392.795 33.0207C394.33 31.4848 396.25 30.5249 398.554 30.5249C400.858 30.5249 402.778 31.2928 404.313 33.0207C405.849 34.7485 406.809 36.4763 406.809 38.7801C406.617 41.0839 405.849 43.1957 404.121 44.7315ZM393.371 33.7886C392.027 35.1325 391.259 36.8603 391.259 38.7801C391.259 40.6999 392.027 42.4277 393.371 43.7716C394.714 45.1155 396.442 45.8834 398.362 45.8834C400.282 45.8834 402.01 45.1155 403.354 43.7716C404.697 42.4277 405.465 40.6999 405.465 38.7801C405.465 36.8603 404.697 35.1325 403.354 33.7886C402.01 32.4447 400.282 31.6768 398.362 31.6768C396.442 31.6768 394.714 32.4447 393.371 33.7886ZM398.17 34.3645C399.322 34.3645 400.09 34.5565 400.666 34.7485C401.626 35.1325 402.01 35.9004 402.01 37.0523C402.01 37.8202 401.626 38.3961 401.05 38.7801C400.666 38.9721 400.282 39.1641 399.706 39.1641C400.474 39.356 400.858 39.548 401.242 40.124C401.626 40.5079 401.818 41.0839 401.818 41.4678C401.818 41.4678 401.818 42.6197 401.818 42.8117C401.818 43.0037 402.01 43.3876 402.01 43.3876H400.474V42.2358C400.474 41.2758 400.282 40.5079 399.706 40.124C399.322 39.932 398.746 39.74 397.978 39.74H396.634V43.3876H395.098V34.3645H398.17ZM399.898 35.7084C399.322 35.1325 396.634 35.3244 396.634 35.3244V38.5881H398.17C398.938 38.5881 400.666 38.3961 400.666 37.0523C400.474 36.4763 400.282 36.0924 399.898 35.7084Z" fill="white"/>
</g>
<defs>
<clipPath id="clip0">
<rect width="407" height="107.509" fill="white"/>
</clipPath>
</defs>
</svg>
